<svg id="Calque_1" data-name="Calque 1" xmlns="http://www.w3.org/2000/svg" viewBox="0 0 300 300"><defs><style>.cls-1{fill:#183a66;}.cls-2{fill:#b2cae0;}.cls-3{fill:#84a4bc;}.cls-4{fill:#c7dbea;}.cls-5{fill:#f4f4f4;}.cls-6{fill:#b1724f;}.cls-7{fill:#ab6b48;}.cls-8{fill:#a2654a;}.cls-9{fill:#f3bb7c;}.cls-10{fill:#faccb3;}.cls-11{fill:#9a5536;}.cls-12{fill:#fff;}</style></defs><path class="cls-1" d="M298.35,149.61A148.56,148.56,0,0,1,226.46,277c-.88.54-1.77,1.08-2.67,1.59s-1.83,1-2.77,1.55a147.92,147.92,0,0,1-71.33,18.21,151,151,0,0,1-18.64-1.16,147.48,147.48,0,0,1-51.71-16.52c-.92-.47-1.79-1-2.69-1.47s-1.79-1-2.66-1.55a144.7,144.7,0,0,1-14.34-9.69,148.66,148.66,0,1,1,238.7-118.3Z"/><path class="cls-2" d="M209.21,71.11c0-1.45.14-3.14-1.82-4a12.13,12.13,0,0,0-4.58-.66c-34.36-.53-70.23-.39-104.65-.52a18.91,18.91,0,0,0-5.27.46c-3.27,1-3.06,3-3.2,5.44-.23,4-.15,4.25-.14,8s.65,5.53,5.86,5.52c34.26,0,86.87.74,106.75.74,6.45,0,6.77-1.91,7-6.84C209.21,77.61,209.22,72.85,209.21,71.11Z"/><path class="cls-3" d="M121,79.4c-10.4.58-21.11.3-31.29,2.77.43,2.08,1.77,3.12,5.68,3.11,34.26,0,86.87.74,106.75.74,6.45,0,6.77-1.91,7-6.84,0-.74.05-2.21.06-3.73C189.23,77.48,132,78.78,121,79.4Z"/><path class="cls-2" d="M210.12,95.28c-2.71,20.29-15.65,94.16-20.39,116.43-1.34,6.28-2,15.61-6.46,20.4a16.07,16.07,0,0,1-7,3.92c-15.15,4.79-34.6,2.89-49.93-.56-5.34-1.21-11-3-14.19-7.52-1.32-1.85-2.76-6.54-4.18-12.37-9-37.11-19-117.84-19.31-120.3Z"/><path class="cls-4" d="M88.62,95.28c0,.34.28,2.2.67,5.23,12.88,1.89,48,4.75,59.2,5.13,7,.23,14,.55,21.07.86,6.24.27,13.13-.19,19.23,1.31,8.82,2.16,10.12,11.41,3.68,17.33-4.32,4-11.72,5-17.31,5.58-18.78,1.78-35.32,3.7-55.55,3.33,4.4,3,10.25,3.13,15.39,3.64,5.59.57,11.16,1,16.78,1.21,11.91.46,23.81.44,35.67,1.77a2.19,2.19,0,0,1,1.53.86,2.1,2.1,0,0,1,.89,1.56c1.46,14.52-10.73,31.27-21.48,39.94-14.74,11.89-35.06,9.41-52.74,9.56l0,.09.17.49c9,2.17,43.1,6.93,49.21,8.34,11,2.54,14,8,11.18,16.38-3.82,11.43-16,11.4-27.43,10.73-11.63-.68-28.56-1-39.11-6.53a22.94,22.94,0,0,0,2.42,5.86c3.17,4.48,8.85,6.31,14.19,7.52,15.33,3.45,34.78,5.35,49.93.56a16.07,16.07,0,0,0,7-3.92c4.48-4.79,5.12-14.12,6.46-20.4,4.74-22.27,17.68-96.14,20.39-116.43Z"/><path class="cls-5" d="M196.75,192.74c3.67-16.78,8-43.14,10.07-61.87-38.53,6.79-77.37,4.44-116-.15,1.91,17.9,6.28,46.43,8.69,59.89C131.68,196.42,164.53,198.44,196.75,192.74Z"/><path class="cls-2" d="M217.45,86.49c0-1.62.16-3.52-2.07-4.52a14.11,14.11,0,0,0-5.21-.73c-39.09-.6-79.9-.43-119.06-.58a21.29,21.29,0,0,0-6,.51c-3.73,1.12-3.48,3.41-3.65,6.1-.26,4.46-.17,4.76-.16,8.92s.74,6.19,6.67,6.19c39,0,98.83.82,121.45.82,7.33,0,7.7-2.14,7.94-7.66C217.45,93.78,217.46,88.44,217.45,86.49Z"/><path class="cls-6" d="M161.53,166.53a19,19,0,0,0,1.81,11.41c4.5,8,14.58,6.15,20,.75,6.23-6.16,10.92-17.88,8.37-26.87-1.52-5.36-6.25-9.62-12.4-8.87-5.09.63-9,5.15-11.84,8.9A30.56,30.56,0,0,0,161.53,166.53Z"/><path class="cls-7" d="M191.76,151.82c-.08-.26-.17-.52-.26-.78-.11,6.72-3.57,14.42-6.39,19s-7.7,8.76-13.36,8.85a13.19,13.19,0,0,1-10-5.09,15.2,15.2,0,0,0,1.55,4.19c4.5,8,14.58,6.15,20,.75C189.62,172.53,194.31,160.81,191.76,151.82Z"/><path class="cls-8" d="M184.72,146a90.52,90.52,0,0,1-6.63,8.51,8.77,8.77,0,0,0-.67.82l0,0v.19a20.9,20.9,0,0,0,.57,2c.51,1.66,1.07,3.35,1.57,5.07s1,3.46,1.38,5.33l0,.17.05.31a3.09,3.09,0,0,1,0,.6,4.44,4.44,0,0,1-.15,1.11,5.06,5.06,0,0,1-.37,1,4.92,4.92,0,0,1-.64.95,7.31,7.31,0,0,1-1.28,1.11l-1.08.79a107.18,107.18,0,0,1-9,5.93.61.61,0,0,1-.77-.92,107.38,107.38,0,0,1,7.56-7.67,18.63,18.63,0,0,0,1.66-1.63l.08-.17.06-.27v-.22l0-.07v0l0-.15c-.42-1.61-1-3.29-1.47-5s-1-3.41-1.49-5.19c-.11-.44-.22-.9-.31-1.35a7.3,7.3,0,0,1-.21-1.83,4.78,4.78,0,0,1,.2-1.13,3.78,3.78,0,0,1,.61-1.17,9.16,9.16,0,0,1,1.15-1.14,90.69,90.69,0,0,1,8.42-6.74.5.5,0,0,1,.7.13Z"/><path class="cls-6" d="M113.71,176.78a19,19,0,0,0,9.62,6.4c9,2.14,14.4-6.55,14.13-14.23-.3-8.76-5.74-20.15-14.08-24.37-5-2.51-11.31-1.92-14.92,3.11-3,4.17-2.31,10.1-1.48,14.73A30.5,30.5,0,0,0,113.71,176.78Z"/><path class="cls-7" d="M123.38,144.58l-.74-.34c4.86,4.64,8.17,12.4,9.59,17.55s1.22,11.59-2.54,15.82c-2.48,2.78-6.69,4.13-10.49,3.87a15.06,15.06,0,0,0,4.13,1.7c9,2.14,14.4-6.55,14.13-14.23C137.16,160.19,131.72,148.8,123.38,144.58Z"/><path class="cls-8" d="M114.36,145.84a88.39,88.39,0,0,1,1.76,10.64,7.17,7.17,0,0,0,.16,1.05h0l.15.12c.16.15,1.16.6,1.89,1,1.57.75,3.18,1.48,4.79,2.28s3.23,1.6,4.86,2.6l.15.09.26.18.46.38a4.7,4.7,0,0,1,.71.86,4.78,4.78,0,0,1,.48,1,4.37,4.37,0,0,1,.27,1.11,7.44,7.44,0,0,1,0,1.69l-.16,1.33a105,105,0,0,1-1.72,10.63.61.61,0,0,1-.73.46.62.62,0,0,1-.47-.53,104.93,104.93,0,0,1-.51-10.75,18,18,0,0,0-.08-2.32l-.07-.19-.15-.22-.16-.15-.06,0h0l-.14-.08c-1.47-.78-3.08-1.52-4.67-2.3s-3.21-1.55-4.82-2.42c-.41-.22-.81-.45-1.21-.69a7.33,7.33,0,0,1-1.49-1.08,4.81,4.81,0,0,1-.69-.92,3.68,3.68,0,0,1-.45-1.24,9.74,9.74,0,0,1-.06-1.62,90.76,90.76,0,0,1,.75-10.75.51.51,0,0,1,.57-.43A.49.49,0,0,1,114.36,145.84Z"/><path class="cls-3" d="M97.65,116.5A1.88,1.88,0,0,1,95.8,115l-.52-2.89A1.88,1.88,0,0,1,99,111.4l.51,2.89A1.88,1.88,0,0,1,98,116.47Z"/><path class="cls-3" d="M104.8,118.3a1.88,1.88,0,0,1-1.87-1.73l-.26-3.13a1.88,1.88,0,0,1,3.75-.31l.26,3.13a1.9,1.9,0,0,1-1.72,2Z"/><path class="cls-3" d="M100.46,125.46a1.88,1.88,0,0,1-1.87-1.68l-.34-3.14a1.88,1.88,0,0,1,3.74-.41l.34,3.14a1.89,1.89,0,0,1-1.67,2.08Z"/><path class="cls-3" d="M136.31,130.36a1.89,1.89,0,0,1-1.84-1.49l-.47-2.23a1.88,1.88,0,0,1,3.68-.78l.47,2.23a1.87,1.87,0,0,1-1.45,2.23Z"/><path class="cls-9" d="M112,205.26a1.9,1.9,0,0,1-1.87-1.66l-.29-2.48a1.88,1.88,0,0,1,3.74-.44l.29,2.48a1.89,1.89,0,0,1-1.65,2.09Z"/><path class="cls-9" d="M118.65,209.71a1.88,1.88,0,0,1-1.87-1.69l-.43-4.25a1.88,1.88,0,0,1,3.74-.38l.43,4.25a1.88,1.88,0,0,1-1.68,2.06Z"/><path class="cls-3" d="M198.67,90.14a1.89,1.89,0,0,1-1.88-1.85l0-2.24a1.89,1.89,0,0,1,1.85-1.91h0A1.88,1.88,0,0,1,200.52,86l0,2.23a1.89,1.89,0,0,1-1.85,1.92Z"/><path class="cls-3" d="M204.88,93h-.2A1.88,1.88,0,0,1,203,91a5.56,5.56,0,0,0-.15-2,1.88,1.88,0,1,1,3.63-1,8.92,8.92,0,0,1,.26,3.37A1.88,1.88,0,0,1,204.88,93Z"/><path class="cls-3" d="M103.15,74.5a1.88,1.88,0,0,1-1.86-1.64l-.23-1.79a1.88,1.88,0,1,1,3.73-.48l.23,1.78a1.88,1.88,0,0,1-1.62,2.11Z"/><path class="cls-10" d="M111.61,206.32a1,1,0,0,1-.82-.4L108.53,203a1,1,0,0,1,1.64-1.27l2.25,2.91a1,1,0,0,1-.18,1.45A1,1,0,0,1,111.61,206.32Z"/><path class="cls-10" d="M115.79,207a1,1,0,0,1-1-.65,19.87,19.87,0,0,0-3-5.15,1,1,0,0,1,.15-1.45,1,1,0,0,1,1.46.15,22.21,22.21,0,0,1,3.32,5.69,1,1,0,0,1-.58,1.34Z"/><path class="cls-11" d="M98.24,201.34S118,182,139.9,177.88c0,0,17.59,22.83-5.94,49.82,0,0-28.7,7.29-35.72-4S98.24,201.34,98.24,201.34Z"/><path class="cls-11" d="M97.14,176.71l2.32,13.9,3.43.6.91,4.92-8.55,19.08s-11.24-5.74-9.8-13.87S90.81,179.91,97.14,176.71Z"/><path class="cls-12" d="M134,227.71l-2.91,69.43a147.48,147.48,0,0,1-51.71-16.52c-.92-.47-1.79-1-2.69-1.47s-1.79-1-2.66-1.55a144.7,144.7,0,0,1-14.34-9.69l26.06-62.65s7.5-5.7,10.74,0c0,0,5.8-5.95,9.83-1.43a9.63,9.63,0,0,1,2,5.89s5-4.84,10.88-2.69c5.7,2.1,5.32,9.55,5.32,9.55s3.14-7,9-.31A8.87,8.87,0,0,1,134,227.71Z"/></svg>