<svg id="Capa_1" enable-background="new 0 0 512 512" height="512" viewBox="0 0 512 512" width="512" xmlns="http://www.w3.org/2000/svg"><g><path d="m442.785 392.722h-42.55v-30h42.55c9.352 0 16.959-7.608 16.959-16.959v-101.644c0-9.352-7.607-16.959-16.959-16.959h-42.55v-30h42.55c25.894 0 46.959 21.066 46.959 46.959v101.644c0 25.893-21.066 46.959-46.959 46.959z" fill="#31335b"/><path d="m415.236 132.66v281.12c0 54.16-44.06 98.22-98.22 98.22h-196.54c-54.16 0-98.22-44.06-98.22-98.22v-281.12z" fill="#759ae9"/><path d="m415.236 132.66v281.12c0 54.16-44.06 98.22-98.22 98.22h-98.27v-379.34z" fill="#5772c7"/><path d="m140.574 89.927c-3.219 6.486-8.406 10.847-9.98 12.073h36.611c.07-.129.145-.25.215-.381 6.629-12.457 10.958-32.197-6.062-55.498-7.845-10.74-9.193-21.144-4.122-31.808 3.913-8.232 10.373-13.683 11.142-14.313h-36.57c-.584 1.012-1.157 2.047-1.701 3.127-6.643 13.198-11.007 33.795 5.924 56.973 7.751 10.612 9.237 20.368 4.543 29.827z" fill="#eac2b7"/><path d="m237.416 101.62c-.07.13-.14.25-.21.38h-36.61c1.57-1.23 6.76-5.59 9.98-12.07 4.69-9.46 3.21-19.22-4.54-29.83-16.94-23.18-12.57-43.77-5.93-56.97.55-1.08 1.12-2.12 1.7-3.13h36.57c-.77.63-7.23 6.08-11.14 14.31-5.07 10.67-3.72 21.07 4.12 31.81 17.02 23.3 12.69 43.04 6.06 55.5z" fill="#eac2b7"/><path d="m237.416 101.62c-.07.13-.14.25-.21.38h-20.74c1.58-1.23 6.77-5.59 9.98-12.07 4.7-9.46 3.21-19.22-4.54-29.83-16.93-23.18-12.56-43.77-5.92-56.97.54-1.08 1.12-2.12 1.7-3.13h20.69c-.77.63-7.23 6.08-11.14 14.31-5.07 10.67-3.72 21.07 4.12 31.81 17.02 23.3 12.69 43.04 6.06 55.5z" fill="#ebae9c"/><path d="m280.574 89.927c-3.219 6.486-8.406 10.847-9.98 12.073h36.611c.07-.129.145-.25.215-.381 6.629-12.457 10.958-32.197-6.062-55.498-7.845-10.74-9.193-21.144-4.122-31.808 3.913-8.232 10.373-13.683 11.142-14.313h-36.57c-.584 1.012-1.157 2.047-1.701 3.127-6.643 13.198-11.007 33.795 5.924 56.973 7.751 10.612 9.237 20.368 4.543 29.827z" fill="#ebae9c"/><g><ellipse cx="218.744" cy="321.287" fill="#ead15a" rx="124.95" ry="124.949" transform="matrix(.707 -.707 .707 .707 -163.115 248.778)"/><path d="m343.694 321.287c0 68.895-56.054 124.95-124.949 124.95v-249.9c68.894 0 124.949 56.055 124.949 124.95z" fill="#e8a133"/><path d="m290.044 321.687c0 39.315-31.984 71.309-71.299 71.309s-71.3-31.993-71.3-71.309h27.321c0 24.252 19.726 43.987 43.978 43.987s43.978-19.735 43.978-43.987z" fill="#514d7c"/><g><path d="m175.545 262.364h27.321v28.332h-27.321z" fill="#514d7c"/><path d="m234.622 262.364h27.321v28.332h-27.321z" fill="#31335b"/></g><path d="m290.044 321.687c0 39.315-31.984 71.309-71.299 71.309v-27.321c24.252 0 43.978-19.735 43.978-43.987h27.321z" fill="#31335b"/></g></g></svg>