<svg xmlns="http://www.w3.org/2000/svg" xmlns:xlink="http://www.w3.org/1999/xlink" viewBox="0 0 300 300"><defs><style>.cls-1{isolation:isolate;}.cls-2{fill:#183a66;}.cls-3{fill:#fff;}.cls-4{fill:#f4f4f4;}.cls-5{fill:url(#linear-gradient);}.cls-6{fill:url(#linear-gradient-2);}.cls-7,.cls-8{opacity:0.3;}.cls-22,.cls-23,.cls-24,.cls-25,.cls-26,.cls-7,.cls-8{mix-blend-mode:multiply;}.cls-7{fill:url(#linear-gradient-3);}.cls-8{fill:url(#linear-gradient-4);}.cls-21,.cls-9{fill:#c2c1c1;}.cls-27,.cls-9{opacity:0.5;}.cls-10{fill:url(#linear-gradient-5);}.cls-11{fill:url(#linear-gradient-6);}.cls-12{fill:url(#linear-gradient-7);}.cls-13{fill:url(#linear-gradient-8);}.cls-14{fill:url(#linear-gradient-9);}.cls-15{fill:url(#linear-gradient-10);}.cls-16{fill:url(#linear-gradient-11);}.cls-17{fill:url(#linear-gradient-12);}.cls-18{fill:url(#linear-gradient-13);}.cls-19{fill:url(#linear-gradient-14);}.cls-20{fill:#dc3c14;}.cls-20,.cls-22,.cls-23,.cls-24,.cls-25,.cls-26,.cls-28,.cls-29,.cls-30,.cls-31{opacity:0.4;}.cls-21{opacity:0.2;}.cls-22{fill:url(#linear-gradient-15);}.cls-23{fill:url(#linear-gradient-16);}.cls-24{fill:url(#linear-gradient-17);}.cls-25{fill:url(#linear-gradient-18);}.cls-26{fill:url(#linear-gradient-19);}.cls-27{fill:#f0831c;mix-blend-mode:screen;}.cls-28{fill:url(#linear-gradient-20);}.cls-29{fill:url(#linear-gradient-21);}.cls-30{fill:url(#linear-gradient-22);}.cls-31{fill:url(#linear-gradient-23);}</style><linearGradient id="linear-gradient" x1="147.39" y1="70.96" x2="152.64" y2="124.55" gradientUnits="userSpaceOnUse"><stop offset="0.01" stop-color="#e7e6e6"/><stop offset="1" stop-color="#bfbcc1"/></linearGradient><linearGradient id="linear-gradient-2" x1="109.5" y1="149.51" x2="125.87" y2="-65.61" gradientUnits="userSpaceOnUse"><stop offset="0" stop-color="#786f64"/><stop offset="1" stop-color="#ea5a19"/></linearGradient><linearGradient id="linear-gradient-3" x1="117.18" y1="117.52" x2="117.24" y2="117.52" xlink:href="#linear-gradient-2"/><linearGradient id="linear-gradient-4" x1="150.56" y1="129.99" x2="151.91" y2="107.99" gradientTransform="matrix(1, 0.01, -0.01, 1, 1.03, -2.26)" xlink:href="#linear-gradient-2"/><linearGradient id="linear-gradient-5" x1="156.8" y1="115.91" x2="156.01" y2="78.88" gradientUnits="userSpaceOnUse"><stop offset="0" stop-color="#fbbb21"/><stop offset="0.5" stop-color="#f0811d"/><stop offset="1" stop-color="#ea5a19"/></linearGradient><linearGradient id="linear-gradient-6" x1="151.86" y1="138.28" x2="157.13" y2="69.01" xlink:href="#linear-gradient-2"/><linearGradient id="linear-gradient-7" x1="148.17" y1="25.4" x2="158.15" y2="92.79" gradientUnits="userSpaceOnUse"><stop offset="0" stop-color="#f1851d"/><stop offset="1" stop-color="#ea5a19"/></linearGradient><linearGradient id="linear-gradient-8" x1="145.46" y1="14.5" x2="153.16" y2="97.11" gradientUnits="userSpaceOnUse"><stop offset="0" stop-color="#f1851d"/><stop offset="1" stop-color="#e73d1c"/></linearGradient><linearGradient id="linear-gradient-9" x1="119.19" y1="26.59" x2="120.01" y2="15.9" xlink:href="#linear-gradient-2"/><linearGradient id="linear-gradient-10" x1="164.81" y1="23.09" x2="166.17" y2="5.24" xlink:href="#linear-gradient-2"/><linearGradient id="linear-gradient-11" x1="194.46" y1="28.83" x2="195.02" y2="21.46" xlink:href="#linear-gradient-2"/><linearGradient id="linear-gradient-12" x1="126.96" y1="111.01" x2="127.83" y2="99.54" xlink:href="#linear-gradient-2"/><linearGradient id="linear-gradient-13" x1="157.87" y1="102.48" x2="158.93" y2="88.58" gradientTransform="matrix(1, 0.01, -0.01, 1, 2.32, 6.31)" gradientUnits="userSpaceOnUse"><stop offset="0.01" stop-color="#ffdd08"/><stop offset="1" stop-color="#fbbb21"/></linearGradient><linearGradient id="linear-gradient-14" x1="170.15" y1="83.27" x2="170.96" y2="72.57" gradientTransform="matrix(1, 0.05, -0.05, 1, 7.99, 23.99)" xlink:href="#linear-gradient-13"/><linearGradient id="linear-gradient-15" x1="188.02" y1="45.5" x2="188.62" y2="45.5" xlink:href="#linear-gradient-7"/><linearGradient id="linear-gradient-16" x1="95.24" y1="71.53" x2="204.76" y2="71.53" xlink:href="#linear-gradient-7"/><linearGradient id="linear-gradient-17" x1="118.3" y1="64.91" x2="119.23" y2="52.77" xlink:href="#linear-gradient-7"/><linearGradient id="linear-gradient-18" x1="153.03" y1="66.31" x2="154.93" y2="41.34" xlink:href="#linear-gradient-7"/><linearGradient id="linear-gradient-19" x1="169.21" y1="79.02" x2="171.38" y2="50.5" xlink:href="#linear-gradient-7"/><linearGradient id="linear-gradient-20" x1="139.29" y1="17.05" x2="152.89" y2="17.05" gradientTransform="matrix(1, 0, 0, 1, 0, 0)" xlink:href="#linear-gradient-13"/><linearGradient id="linear-gradient-21" x1="118.98" y1="31.44" x2="129.9" y2="31.44" gradientTransform="matrix(1, 0, 0, 1, 0, 0)" xlink:href="#linear-gradient-13"/><linearGradient id="linear-gradient-22" x1="134.23" y1="66.91" x2="134.33" y2="66.91" gradientTransform="matrix(1, 0, 0, 1, 0, 0)" xlink:href="#linear-gradient-13"/><linearGradient id="linear-gradient-23" x1="134.33" y1="61.53" x2="149.37" y2="61.53" gradientTransform="matrix(1, 0, 0, 1, 0, 0)" xlink:href="#linear-gradient-13"/></defs><g class="cls-1"><g id="Calque_1" data-name="Calque 1"><path class="cls-2" d="M298.49,150a148.59,148.59,0,0,1-71.92,127.37c-.87.54-1.76,1.07-2.66,1.59s-1.83,1.05-2.77,1.54A148.85,148.85,0,0,1,79.42,281c-.92-.47-1.79-1-2.69-1.48s-1.79-1-2.66-1.54A148.72,148.72,0,1,1,298.49,150Z"/><path class="cls-3" d="M102.56,116.46l-2.83,2.87L88.34,130.87a37,37,0,0,1-4.66-2c-8.37-4.18-25.07-15.51-24.42-39.22,1.07-38.9,30.81-57.25,33.41-23.06,1.75,23,5.46,37.25,7.81,44.37,0,0,0,0,0,0,.65,2,1.18,3.35,1.55,4.24S102.56,116.46,102.56,116.46Z"/><path class="cls-3" d="M96.63,126.37a1.9,1.9,0,0,1-.41,0c-.27,0-27-5.34-30-28.91-2.15-17,3-31.77,9.22-36.28a6.23,6.23,0,0,1,6.48-.91c3.75,1.79,5.94,7.59,6.49,17.26,1.39,24.17,10,38,10.14,38.1A2.23,2.23,0,1,1,94.75,118c-.39-.6-9.38-14.93-10.84-40.26-.5-8.8-2.44-12.76-4-13.47-.18-.09-.76-.37-1.94.49-4.41,3.19-9.44,16.12-7.41,32.1,2.59,20.37,26.19,25,26.43,25.08a2.23,2.23,0,0,1-.41,4.43Z"/><path class="cls-3" d="M215.75,128.7a37.63,37.63,0,0,1-5,2.17l-12.44-12.59-1.79-1.82a49,49,0,0,0,2.15-5.68q.48-1.45,1-3.3s0,0,0,0c2.28-7.88,5.22-21.19,6.72-40.87,2.6-34.19,32.34-15.84,33.41,23.06C240.46,113.05,224.22,124.39,215.75,128.7Z"/><path class="cls-3" d="M202.45,126.37a2.23,2.23,0,0,1-.41-4.43c1-.18,23.85-4.77,26.43-25.08,2-16-3-28.91-7.42-32.1-1.18-.85-1.75-.58-1.94-.49-1.5.71-3.44,4.67-4,13.47-1.45,25.33-10.45,39.66-10.83,40.26a2.23,2.23,0,1,1-3.76-2.41h0c.08-.13,8.75-14,10.14-38.1.55-9.67,2.73-15.47,6.49-17.26a6.21,6.21,0,0,1,6.47.91c6.23,4.51,11.38,19.31,9.23,36.28-3,23.57-29.77,28.86-30,28.91A2,2,0,0,1,202.45,126.37Z"/><path class="cls-3" d="M223.43,279c-.92.51-1.84,1.05-2.78,1.54A148.85,148.85,0,0,1,78.93,281c-.91-.47-1.79-1-2.68-1.48-7.7-44.69-12.67-94.85-4.17-125.22.18-.65.36-1.3.56-1.93a85.66,85.66,0,0,1,8.24-19.09c.31-.58.67-1.14,1-1.7a1.53,1.53,0,0,1,.18-.29,2.16,2.16,0,0,1,.22-.36c.34-.56.7-1.07,1-1.61l.32-.47c.68-1,1.36-2,2.08-2.93l.38-.47a.94.94,0,0,1,.2-.27,2.5,2.5,0,0,1,.27-.34c.63-.82,1.28-1.63,2-2.43a68.46,68.46,0,0,1,4.9-5.31c.47-.47,1-.94,1.46-1.39a1.45,1.45,0,0,1,.26-.24,1.56,1.56,0,0,1,.3-.27c.47-.45,1-.87,1.45-1.3s1-.92,1.59-1.34,1.14-.94,1.72-1.39c.07-.07.16-.11.23-.18.6,1.8,1.1,3.13,1.46,4l.09.22c3.43-.41,8.68,1.32,10.46,1.95a7.71,7.71,0,0,1-3.4-2.77,39.05,39.05,0,0,1,5.61,1.64,7.62,7.62,0,0,1-4.57-7.89,1.94,1.94,0,0,1,0-.24c5,1,12.89,7,18.92,7,3.08,0,.75-13.22.28-20a16,16,0,0,1,0-3.14h0c.12-.72.38-1,.85-.62a8.83,8.83,0,0,1,5.5-4.79,14.27,14.27,0,0,1,2.46-.52c.34,0,.69-.08,1-.11q.81-.06,1.68-.09c2.29-.06,4.84,0,7.65,0,2,0,3.93-.06,5.83-.07.75,0,1.49,0,2.22,0s1.16,0,1.73.06,1,.07,1.49.12c3,.29,5.58,1,7.5,2.7a7.89,7.89,0,0,1,.72.7,8.43,8.43,0,0,1,.73.92l.15.23c.16.25.3.51.44.78,3.18-2.44-10,17.85-5.62,17.85,8.71,0,17.49,1.59,28.87-1a56.52,56.52,0,0,1-2.95,8c.11-.12.91-1,2-1.94-.36.85-.61,1.38-.64,1.44a29.67,29.67,0,0,1,3.78-3.32l2.47-1.48.15,0a3.16,3.16,0,0,1,1.23,0l.15-.46c.27-.85.57-1.8.87-2.84a15,15,0,0,1-.43,2.8c0,.22-.1.43-.16.65a.29.29,0,0,1,0,.09c.37.29.75.58,1.11.9l.21.18a1.55,1.55,0,0,1,.33.24,2.86,2.86,0,0,1,.31.27c.37.28.73.57,1.07.88s.41.36.61.55c.47.38.94.81,1.39,1.23s1,.88,1.43,1.35a2.62,2.62,0,0,1,.29.26l.27.27c.5.47,1,.94,1.41,1.44,1.44,1.45,2.8,3,4.12,4.61.65.78,1.28,1.56,1.9,2.39.09.11.16.22.25.34l0,0,.2.27a5.1,5.1,0,0,1,.36.51c.48.65.95,1.31,1.39,2,.35.5.68,1,1,1.52a18.42,18.42,0,0,1,1.05,1.66,1.08,1.08,0,0,1,.2.34,1.15,1.15,0,0,1,.18.29c.36.56.69,1.12,1,1.7a87.89,87.89,0,0,1,7.7,18.19c.2.63.38,1.28.56,1.93C235.94,184.57,231,234.41,223.43,279Z"/><path class="cls-4" d="M199.87,209.71C183.58,230,159.55,231,148.47,231s-35.11-1-51.4-21.29c-13.57-16.9-7.11-53.89,4.05-72.13a18.7,18.7,0,0,0,16.27,9.86,18.07,18.07,0,0,0,11.51-4.15,22,22,0,0,0,39.13,0,18.09,18.09,0,0,0,11.51,4.15,18.72,18.72,0,0,0,16.28-9.86C207,155.82,213.43,192.81,199.87,209.71Z"/><path class="cls-2" d="M156,179.46a2.39,2.39,0,0,1,1.33,3.57c-1.78,2.7-5.1,6.78-8.9,6.78s-7.12-4.08-8.91-6.78a2.39,2.39,0,0,1,1.34-3.57,20.49,20.49,0,0,1,15.14,0Z"/><path class="cls-2" d="M166.59,210.27a51.57,51.57,0,0,0-6.4-3.18c-1.81-.55-3.61-1.22-6-1.75s-3.65-.41-5.66-.65a22,22,0,0,0-5.46.15,30.31,30.31,0,0,0-5.2,1.22,32.72,32.72,0,0,0-4.47,2,8,8,0,0,0-2.65,2.18v0a1,1,0,0,1-1.08.14.73.73,0,0,1-.22-.16,6.31,6.31,0,0,1-1.64-5.86,10.88,10.88,0,0,1,3.93-5.66,21,21,0,0,1,7.72-3.74,35,35,0,0,1,9.22-1.14,37.94,37.94,0,0,1,9.17,1.22,20.72,20.72,0,0,1,7.73,3.68,10.06,10.06,0,0,1,3.73,5.7,7.11,7.11,0,0,1-1.41,5.8.91.91,0,0,1-1,.21.58.58,0,0,1-.31-.2Z"/><path class="cls-2" d="M148.47,195.4a2.09,2.09,0,0,1-2.09-2.08v-7.88a2.09,2.09,0,0,1,4.17,0v7.88A2.08,2.08,0,0,1,148.47,195.4Z"/><ellipse class="cls-2" cx="114.79" cy="170.37" rx="16.13" ry="12.44" transform="translate(-72.26 255.34) rotate(-80.46)"/><ellipse class="cls-3" cx="111.08" cy="166.43" rx="5.56" ry="3.33" transform="matrix(0.19, -0.98, 0.98, 0.19, -73.19, 244.42)"/><ellipse class="cls-3" cx="119.91" cy="175.66" rx="2.78" ry="1.67" transform="translate(-69.46 272.49) rotate(-82.76)"/><ellipse class="cls-2" cx="181.03" cy="170.37" rx="12.44" ry="16.13" transform="translate(-25.73 32.36) rotate(-9.54)"/><ellipse class="cls-3" cx="184.74" cy="166.43" rx="3.33" ry="5.56" transform="translate(-27.87 37.49) rotate(-10.78)"/><ellipse class="cls-3" cx="175.91" cy="175.66" rx="1.67" ry="2.78" transform="translate(-20.73 23.56) rotate(-7.24)"/><path class="cls-5" d="M202.11,113.49c0,1.48-.86,3-2.52,4.36-6.91,5.85-26.94,10.63-47,10.83-22.84.22-46.14-5.73-50.57-10.59a2.09,2.09,0,0,1-.73-1.89A2.33,2.33,0,0,1,102,115s0,0,0,0a4,4,0,0,1,2.41-1,15.41,15.41,0,0,1,4.72.4,39.05,39.05,0,0,1,5.61,1.64,7.62,7.62,0,0,1-4.57-7.89,1.94,1.94,0,0,1,0-.24,4.48,4.48,0,0,1,.24-1.23c1.39-4.4,7.74-1.58,7.95-1.49A44.64,44.64,0,0,1,114.41,96c0-3.19.77-7.63,3.13-10.17,3.53-3.78,8.62,2.77,11.82,9.1l.32.65a35.94,35.94,0,0,1-.32-3.79h0c-.09-3.5.35-8.26,3.38-9,2.53-.59,4.18,1,5.19,2.62a4.49,4.49,0,0,1,.24.42,12,12,0,0,1,1.08,2.73s.62-1.26,1.64-2.93c.16-.26.32-.54.5-.82,2.39-3.74,6.35-8.77,9.89-7.6,2.78.92,4.3,4.4,5.11,7.61.07.27.14.54.2.81a34.16,34.16,0,0,1,.74,5.25s1-2.43,2.48-5.07c.16-.29.32-.59.49-.88,1.54-2.68,3.44-5.33,5-5.62,4.46-.82,4.38,4.73,3.84,8.52-.13.91-.28,1.71-.41,2.3s-.22.92-.24,1c0-.08.17-.36.39-.79s.57-1.12,1-1.83c1.4-2.51,3.53-5.78,4.72-4.8,1.83,1.48.43,7.69.33,8.17l0-.07c.59-1.24,7.16-15.08,11.34-9.09,4.37,6.23-.8,15.51-1.27,16.32.45-.6,5.3-7,9.23-.27,1.17,2,.68,5.48-.23,8.77a54.93,54.93,0,0,1-2.34,6.56c-.36.85-.61,1.38-.64,1.44a29.67,29.67,0,0,1,3.78-3.32,13.8,13.8,0,0,1,2.47-1.48,6.16,6.16,0,0,1,1.5-.47h0a2.25,2.25,0,0,1,.44,0,2.66,2.66,0,0,1,.75.07,3.61,3.61,0,0,1,.42.16,2.53,2.53,0,0,1,1.07,1,4.72,4.72,0,0,1,.44,1A3.56,3.56,0,0,1,202.11,113.49Z"/><path class="cls-6" d="M111.64,117.21a5.92,5.92,0,0,0,.63.23Z"/><path class="cls-7" d="M117.18,117.21a2.81,2.81,0,0,1,.06.62C117.19,117.44,117.18,117.21,117.18,117.21Z"/><path class="cls-8" d="M152.63,128.68c-25.93.25-52.45-7.45-51.3-12.48A2.3,2.3,0,0,1,102,115c2,2.31,8.43,7.63,13.31,6.32,4.29-1.13,4.89-3.49,4.91-4.6.19,1.81,1,7.09,4.76,7.45,4.19.41,2.51-4.21,2.26-4.85.3.67,2.83,6.07,6.09,5.9,3.46-.17,6.62-8.95,6.62-8.95s.09,3.49,1.9,3.6a4,4,0,0,0,2.84,5.45c4.42,1.42,8.62-9.79,8.62-9.79s2.55,1.79,4.12-1.74c0,0-.48,11.88,4.91,11.79s5.2-7.57,5.2-7.57,2.15,7.12,7.79,6.18a9.57,9.57,0,0,0,7.36-5.66s1.13,4,4.34,3.2c2.76-.66,10.19-4.19,11.79-11.43,1.37-.21,2.55.3,3.15,2.17C204.47,120.51,178.55,128.42,152.63,128.68Z"/><path class="cls-9" d="M145.71,110.43c-.07.59,2.95-7.27,8.58-3.84C154.29,106.59,147.05,98.31,145.71,110.43Z"/><path class="cls-9" d="M168.69,111.62s3.8-5.13,7.6-3.75,3.8,3.75,3.8,3.75-.13-6.71-4.19-7.1S168.69,111.62,168.69,111.62Z"/><path class="cls-9" d="M115.09,111.62s0-4.47,3.14-5.49a3.41,3.41,0,0,1,4.33,1.93S117.91,105.81,115.09,111.62Z"/><path class="cls-10" d="M136.94,116.28s-.54-2.28,2.22-3.24,6.48,3.15,6.48,3.15,4.44-6.13,7.19-6.09,5.87,6.61,5.87,6.61,1.51-4.29,4.36-5,5.24,3,5.24,3l.33-.26-.12,0c-.65.21,4.56-12,9-22.24l1.13-2.59h0c2.63-6,4.75-10.8,4.84-11a25.34,25.34,0,0,1-4.56,2,21.71,21.71,0,0,1-5.63,1.13c-9.81.67-8-4.93-8-4.93a24.45,24.45,0,0,1-4.54,1.74c-.87.15-1.19-.79-1.29-1.69-.28,1.06-1.32,2.47-4.62,3.41C149,82,143.13,74,143.13,74s.16,16.17-14.37,16l1.36,5.18.9,3.41,4.23,16.08C136.23,115.5,136.94,116.28,136.94,116.28Z"/><path class="cls-11" d="M156.25,79.56a7.88,7.88,0,0,0,0,1.23A2,2,0,0,0,156.25,79.56Z"/><path class="cls-12" d="M156.25,79.56a7.88,7.88,0,0,0,0,1.23A2,2,0,0,0,156.25,79.56Z"/><path class="cls-13" d="M190.44,76.59a25.24,25.24,0,0,1-5.88,4.58,23.79,23.79,0,0,1-10.19,3.19c-9.81.66-8-4.93-8-4.93a24.15,24.15,0,0,1-4.54,1.74c-.86.15-1.18-.8-1.29-1.69a2.46,2.46,0,0,0,0-1.46,8.73,8.73,0,0,0,0,1.46c-.28,1.06-1.31,2.47-4.61,3.41-5.91,1.69-11.73-6.3-11.73-6.3s.15,16.18-14.38,16-12.71-16-12.71-16S99.6,78.18,96,70.42a7.87,7.87,0,0,1,.68-7.73,21.85,21.85,0,0,1,6.84-6.47s-2.43-8.31,2.07-13.37l.2-.22c4.76-5,14.61-1.13,14.61-1.13s-4.22-8.21,1.94-12.32S133.91,32,133.91,32s-1-3.46,1.1-5,2.76,2.14,2.76,2.14c0-.52.91-16.22,8.85-15.76S155.25,27,155.25,27s0-6.84,2.95-5.74c2.61,1,4.34,9.7,4.7,11.68,0,.25.07.39.07.39s.05-.25.16-.67c.49-1.92,2.09-7.2,4.76-6.48,3.25.87,3.16,7.24,3.16,7.24s3.95-8,11.21-4.28,12,14.7,10.22,21.07a6.34,6.34,0,0,1,.91-.54,6.6,6.6,0,0,1,7.56.76,10.2,10.2,0,0,1,1.75,1.94C207.24,58.85,204.74,73.08,190.44,76.59Z"/><path class="cls-14" d="M122.31,25.74c.47-1.33-2.7-9.87-5-9.85S122.31,25.74,122.31,25.74Z"/><path class="cls-15" d="M164.82,21.27s-2.27-15.94,1.36-15.71S164.82,21.27,164.82,21.27Z"/><path class="cls-16" d="M191.88,27.89c-.67-.4,4.25-7.84,5.59-5.8S191.88,27.89,191.88,27.89Z"/><path class="cls-17" d="M130.34,110.1c-.68-2.65-4.08-12.17-5.67-10.32S130.34,110.1,130.34,110.1Z"/><path class="cls-18" d="M157.87,109.26c-.56-.74.93-13.21,3-12S157.87,109.26,157.87,109.26Z"/><path class="cls-19" d="M171.76,113.74s3.36-10.82,5.49-8.62S171.76,113.74,171.76,113.74Z"/><path class="cls-20" d="M155.77,88.61s-2.13,5.39-6.44,6.57S144,92.55,144,92.55s.27,7-4.79,8.14A9.87,9.87,0,0,1,131,98.55l-.9-3.41c2.19,1.49,6.18,3.81,8.59,2.82,3.47-1.42,4.35-9.35,4.35-9.35s3.12,4.34,5.87,4.73S155.77,88.61,155.77,88.61Z"/><path class="cls-20" d="M178.65,89.54h0l-1.13,2.59c-1-1.67-2.32-3.47-3.92-4-3.22-1.18-5.84,6.67-5.84,6.67s-1.19-2.6-2-2.47-.69,2.15-.68,2.44c-.1-.49-1.27-6.38,0-6.32s2.13,3.35,2.13,3.35,3.07-6.56,7.06-6.69C177.31,85,178.15,87.82,178.65,89.54Z"/><path class="cls-21" d="M140.18,107s4,.16,5.33,3.1c0,0,.31-4.34,3.82-5s4.81,1.47,4.81,1.47-1.52-4.53-5.21-3.38a5.13,5.13,0,0,0-3.82,4.43A3.84,3.84,0,0,0,140.18,107Z"/><path class="cls-22" d="M188.62,45.87c-.45-.52-.67-.8-.58-.73A4.48,4.48,0,0,1,188.62,45.87Z"/><path class="cls-23" d="M190.44,76.59a25.24,25.24,0,0,1-5.88,4.58,23.79,23.79,0,0,1-10.19,3.19c-9.81.66-8-4.93-8-4.93a24.15,24.15,0,0,1-4.54,1.74c-.86.15-1.18-.8-1.29-1.69-.28,1.06-1.31,2.47-4.61,3.41-5.91,1.69-11.73-6.3-11.73-6.3s.15,16.18-14.38,16-12.71-16-12.71-16S99.6,78.18,96,70.42a7.87,7.87,0,0,1,.68-7.73,12.21,12.21,0,0,0,7.95,8.45c6.22,1.89,15.74-2.46,15.74-2.46s-.28,11.7,6.29,14,17.74-8.16,15.83-14c.28.57,4.95,10,10.29,9.41,5.51-.61,6.13-11.19,6.13-11.19s6.72,1.13,6.69-4.3c0,0,7.08-7.56,11,2.26a7.37,7.37,0,0,0,8,5.46c6.57-.54,10.83-4.74,8.53-9.12,0,0,9.76,1,9.95-3.43.09-2.08-.92-4.83-2.09-7.23a10.2,10.2,0,0,1,1.75,1.94C207.24,58.85,204.74,73.08,190.44,76.59Z"/><path class="cls-24" d="M111,56.23c.35-.7,2.35-3.83,8.28-3.23s7.53,4.7,7.53,4.7a15.52,15.52,0,0,0-7.9-2.39A25.46,25.46,0,0,0,111,56.23Z"/><path class="cls-25" d="M148.23,49.77c.26-.37.91-7.72,7-7.9s5.42,4.19,5.42,4.19A6.11,6.11,0,0,0,155.21,44C151.86,44.5,148.23,49.77,148.23,49.77Z"/><path class="cls-26" d="M164.12,55.67a10.85,10.85,0,0,0,8.52,1.17c5-1.31,5.16-5.34,5.16-5.34s1.82,6-5.2,8.52S164.12,55.67,164.12,55.67Z"/><path class="cls-27" d="M162.9,33a31.07,31.07,0,0,0-2.25,3.12s-2.75-8.41-9-10.37-7.67,7-7.67,7-3.16-3.85-6.9-1.4-2.78,7.24-2.73,7.51c-.17-.27-3.76-5.85-7.81-2.43s-.21,13.48,0,14c-.13-.21-1.33-2-6.34-6.12-3.68-3-10.32-2.8-14.66-1.48l.2-.22c4.76-5,14.61-1.13,14.61-1.13A14.07,14.07,0,0,1,119,35h0a7.28,7.28,0,0,1,3.33-5.82,7.14,7.14,0,0,1,7.59-.39h0a13.42,13.42,0,0,1,4,3.21c0-.19-.9-3.49,1.1-5s2.76,2.14,2.76,2.14a36.06,36.06,0,0,1,1.52-8.49h0c1.24-3.84,3.44-7.49,7.33-7.26,3,.18,5,2.18,6.27,4.6h0a24.89,24.89,0,0,1,2.36,9s0-6.84,2.95-5.74C160.81,22.27,162.54,31,162.9,33Z"/><path class="cls-27" d="M189.53,55.31c3.2-6.87-5.51-22.19-11.51-22.72S170,38,170,38s-.71-7.13-2.95-7.82c-1.08-.35-2.61,1-3.9,2.55.49-1.92,2.09-7.2,4.76-6.48,3.25.87,3.16,7.24,3.16,7.24s3.95-8,11.21-4.28,12,14.7,10.22,21.07a6.34,6.34,0,0,1,.91-.54A31.72,31.72,0,0,1,189.53,55.31Z"/><path class="cls-28" d="M152.89,18a10.5,10.5,0,0,0-6.18-2.93c-2.8-.19-5.63,2.91-7.42,5.59,1.24-3.84,3.44-7.49,7.33-7.26C149.64,13.6,151.6,15.6,152.89,18Z"/><path class="cls-29" d="M129.9,28.79c-3.32.27-8.55,1.55-10.92,6.21a7.28,7.28,0,0,1,3.33-5.82A7.14,7.14,0,0,1,129.9,28.79Z"/><path class="cls-30" d="M134.33,66.74l-.1.34A.8.8,0,0,0,134.33,66.74Z"/><path class="cls-31" d="M149.37,58.08s-3.73-2.55-5.36-1.5a3.89,3.89,0,0,0-1.65,3h0a6.06,6.06,0,0,0-3.07-.26c-4.34.71-4.68,6-5,7.41.36-1.06,1.69-4.34,5-5.17a7.83,7.83,0,0,1,6.8,1.64A7.23,7.23,0,0,0,143,59.89h0C144.83,56.5,149.37,58.08,149.37,58.08Z"/></g></g></svg>