<svg xmlns="http://www.w3.org/2000/svg" xmlns:xlink="http://www.w3.org/1999/xlink" viewBox="0 0 300 300"><defs><style>.cls-1{isolation:isolate;}.cls-2{fill:#183a66;}.cls-3{fill:#fff;}.cls-4{fill:#f4f4f4;}.cls-5{fill:url(#linear-gradient);}.cls-6{fill:url(#linear-gradient-2);}.cls-10,.cls-7,.cls-8{opacity:0.3;}.cls-10,.cls-23,.cls-24,.cls-25,.cls-26,.cls-27,.cls-7,.cls-8{mix-blend-mode:multiply;}.cls-7{fill:url(#linear-gradient-3);}.cls-8{fill:url(#linear-gradient-4);}.cls-22,.cls-9{fill:#c2c1c1;}.cls-28,.cls-9{opacity:0.5;}.cls-10{fill:url(#linear-gradient-5);}.cls-11{fill:url(#linear-gradient-6);}.cls-12{fill:url(#linear-gradient-7);}.cls-13{fill:url(#linear-gradient-8);}.cls-14{fill:url(#linear-gradient-9);}.cls-15{fill:url(#linear-gradient-10);}.cls-16{fill:url(#linear-gradient-11);}.cls-17{fill:url(#linear-gradient-12);}.cls-18{fill:url(#linear-gradient-13);}.cls-19{fill:url(#linear-gradient-14);}.cls-20{fill:url(#linear-gradient-15);}.cls-21{fill:#dc3c14;}.cls-21,.cls-23,.cls-24,.cls-25,.cls-26,.cls-27,.cls-29,.cls-30,.cls-31,.cls-32{opacity:0.4;}.cls-22{opacity:0.2;}.cls-23{fill:url(#linear-gradient-16);}.cls-24{fill:url(#linear-gradient-17);}.cls-25{fill:url(#linear-gradient-18);}.cls-26{fill:url(#linear-gradient-19);}.cls-27{fill:url(#linear-gradient-20);}.cls-28{fill:#f0831c;mix-blend-mode:screen;}.cls-29{fill:url(#linear-gradient-21);}.cls-30{fill:url(#linear-gradient-22);}.cls-31{fill:url(#linear-gradient-23);}.cls-32{fill:url(#linear-gradient-24);}</style><linearGradient id="linear-gradient" x1="144.65" y1="63.59" x2="149.89" y2="117.09" gradientUnits="userSpaceOnUse"><stop offset="0.01" stop-color="#e7e6e6"/><stop offset="1" stop-color="#bfbcc1"/></linearGradient><linearGradient id="linear-gradient-2" x1="109.14" y1="141.44" x2="125.57" y2="-74.52" gradientUnits="userSpaceOnUse"><stop offset="0" stop-color="#786f64"/><stop offset="1" stop-color="#ea5a19"/></linearGradient><linearGradient id="linear-gradient-3" x1="116.75" y1="109.33" x2="116.81" y2="109.33" xlink:href="#linear-gradient-2"/><linearGradient id="linear-gradient-4" x1="148.11" y1="121.61" x2="149.46" y2="99.62" xlink:href="#linear-gradient-2"/><linearGradient id="linear-gradient-5" x1="138.21" y1="100.58" x2="137.89" y2="113.61" xlink:href="#linear-gradient-2"/><linearGradient id="linear-gradient-6" x1="152.92" y1="101.06" x2="152.28" y2="70.61" gradientUnits="userSpaceOnUse"><stop offset="0" stop-color="#fbbb21"/><stop offset="0.5" stop-color="#f0811d"/><stop offset="1" stop-color="#ea5a19"/></linearGradient><linearGradient id="linear-gradient-7" x1="150.76" y1="125.13" x2="155.92" y2="57.42" xlink:href="#linear-gradient-2"/><linearGradient id="linear-gradient-8" x1="147.16" y1="14.79" x2="156.91" y2="80.66" gradientUnits="userSpaceOnUse"><stop offset="0" stop-color="#f1851d"/><stop offset="1" stop-color="#ea5a19"/></linearGradient><linearGradient id="linear-gradient-9" x1="143.67" y1="17.65" x2="150.01" y2="85.62" gradientUnits="userSpaceOnUse"><stop offset="0" stop-color="#f1851d"/><stop offset="1" stop-color="#e73d1c"/></linearGradient><linearGradient id="linear-gradient-10" x1="122.44" y1="27.59" x2="123.1" y2="18.79" xlink:href="#linear-gradient-2"/><linearGradient id="linear-gradient-11" x1="153.11" y1="21.45" x2="154.22" y2="6.77" xlink:href="#linear-gradient-2"/><linearGradient id="linear-gradient-12" x1="176.04" y1="28.74" x2="176.5" y2="22.68" xlink:href="#linear-gradient-2"/><linearGradient id="linear-gradient-13" x1="128.73" y1="97.03" x2="129.45" y2="87.6" xlink:href="#linear-gradient-2"/><linearGradient id="linear-gradient-14" x1="153.41" y1="88.59" x2="154.28" y2="77.17" gradientTransform="matrix(1, 0.01, -0.01, 1, 2.32, 6.31)" gradientUnits="userSpaceOnUse"><stop offset="0.01" stop-color="#ffdd08"/><stop offset="1" stop-color="#fbbb21"/></linearGradient><linearGradient id="linear-gradient-15" x1="162.3" y1="68.9" x2="162.97" y2="60.11" gradientTransform="matrix(1, 0.05, -0.05, 1, 7.99, 23.99)" xlink:href="#linear-gradient-14"/><linearGradient id="linear-gradient-16" x1="186.05" y1="43.25" x2="186.63" y2="43.25" xlink:href="#linear-gradient-8"/><linearGradient id="linear-gradient-17" x1="103.03" y1="64.56" x2="191.78" y2="64.56" xlink:href="#linear-gradient-8"/><linearGradient id="linear-gradient-18" x1="121.71" y1="59.13" x2="122.47" y2="49.13" xlink:href="#linear-gradient-8"/><linearGradient id="linear-gradient-19" x1="149.85" y1="60.25" x2="151.41" y2="39.73" xlink:href="#linear-gradient-8"/><linearGradient id="linear-gradient-20" x1="162.95" y1="70.7" x2="164.74" y2="47.26" xlink:href="#linear-gradient-8"/><linearGradient id="linear-gradient-21" x1="138.73" y1="19.74" x2="149.75" y2="19.74" gradientTransform="matrix(1, 0, 0, 1, 0, 0)" xlink:href="#linear-gradient-14"/><linearGradient id="linear-gradient-22" x1="122.27" y1="31.58" x2="131.12" y2="31.58" gradientTransform="matrix(1, 0, 0, 1, 0, 0)" xlink:href="#linear-gradient-14"/><linearGradient id="linear-gradient-23" x1="134.63" y1="60.76" x2="134.71" y2="60.76" gradientTransform="matrix(1, 0, 0, 1, 0, 0)" xlink:href="#linear-gradient-14"/><linearGradient id="linear-gradient-24" x1="134.71" y1="56.33" x2="146.9" y2="56.33" gradientTransform="matrix(1, 0, 0, 1, 0, 0)" xlink:href="#linear-gradient-14"/></defs><g class="cls-1"><g id="Calque_1" data-name="Calque 1"><path class="cls-2" d="M297.42,150.6A148.58,148.58,0,0,1,225.51,278c-.87.54-1.76,1.07-2.66,1.59s-1.84,1.05-2.78,1.54a148.83,148.83,0,0,1-141.71.54c-.92-.47-1.79-1-2.69-1.48s-1.79-1-2.66-1.54a148.71,148.71,0,1,1,224.41-128Z"/><path class="cls-3" d="M101.5,117.07s-7.23-14.86-9.89-49.86C89,33,59.26,51.37,58.19,90.28c-.86,31.59,29.08,41.21,29.08,41.21Z"/><path class="cls-3" d="M95.57,127a2,2,0,0,1-.42,0c-.27,0-27-5.34-30-28.91-2.15-17,3-31.77,9.22-36.28a6.22,6.22,0,0,1,6.48-.91c3.75,1.78,5.93,7.59,6.49,17.26,1.39,24.17,10,38,10.14,38.1a2.23,2.23,0,1,1-3.76,2.41c-.39-.6-9.38-14.93-10.84-40.26-.51-8.8-2.44-12.76-3.95-13.47-.18-.09-.76-.37-1.94.49-4.41,3.19-9.44,16.12-7.41,32.09,2.58,20.38,26.19,25.05,26.43,25.09a2.23,2.23,0,0,1-.41,4.43Z"/><path class="cls-3" d="M195.46,117.07s7.22-14.86,9.89-49.86C208,33,237.69,51.37,238.76,90.28c.87,31.59-29.08,41.21-29.08,41.21Z"/><path class="cls-3" d="M201.38,127a2.23,2.23,0,0,1-.41-4.43c1-.18,23.86-4.77,26.43-25.09,2-16-3-28.9-7.41-32.09-1.18-.86-1.75-.58-1.94-.49-1.5.71-3.44,4.67-4,13.47-1.45,25.33-10.45,39.66-10.83,40.26a2.24,2.24,0,0,1-3.77-2.41h0c.09-.13,8.76-14,10.14-38.1.56-9.67,2.74-15.48,6.5-17.26a6.21,6.21,0,0,1,6.47.91C228.84,66.26,234,81.06,231.84,98c-3,23.57-29.77,28.86-30,28.91A2,2,0,0,1,201.38,127Z"/><path class="cls-3" d="M222.36,279.56c-.92.51-1.83,1.05-2.77,1.54a148.85,148.85,0,0,1-141.72.54c-.92-.47-1.79-1-2.69-1.48-7.7-44.69-12.67-94.85-4.16-125.22.18-.65.36-1.3.56-1.92a85.08,85.08,0,0,1,8.24-19.1c.31-.58.67-1.14,1-1.7a2.19,2.19,0,0,1,.17-.29,2.74,2.74,0,0,1,.23-.36c.33-.56.69-1.07,1-1.61.78-1.16,1.57-2.3,2.39-3.4l.39-.47a.94.94,0,0,1,.2-.27,1.31,1.31,0,0,1,.27-.33c.62-.83,1.27-1.64,2-2.44a68.59,68.59,0,0,1,4.91-5.31c.47-.47,1-.94,1.45-1.39l.27-.24a1.86,1.86,0,0,1,.29-.27c.47-.45,1-.87,1.46-1.3s1-.92,1.58-1.34,1.15-.94,1.73-1.39c.06-.07.15-.11.22-.18a13.93,13.93,0,0,1-.38-1.7c-.18-.85,3.2,1.56,3.18.67,0-.22,0,.22,0,0,0-1.79,1.91,2.07,2.4.41,2.26-7.81,14.75,4.55,23.39,4.55,4.35,0-2-26.22,1.13-23.78,3.34-6.56,9.61-5.46,18.34-5.46s17.47-1.1,20.81,5.46c3.18-2.44-10,17.85-5.62,17.85,10.45,0,21,2.29,36-3,.32-.11,0,.69,0,1v.07a17.27,17.27,0,0,1-.65,3.91c.45.34.9.7,1.32,1.08a1.39,1.39,0,0,1,.34.24c.11.09.22.18.31.27.58.45,1.14.92,1.68,1.43s.94.81,1.39,1.23,1,.88,1.43,1.35a3.84,3.84,0,0,1,.29.27l.27.26c.49.47,1,.94,1.41,1.44,1.43,1.45,2.8,3,4.12,4.61.65.78,1.27,1.56,1.9,2.39.09.11.16.23.25.34l0,0,.2.27c.11.16.25.33.36.51.85,1.15,1.63,2.31,2.39,3.5a17,17,0,0,1,1.05,1.65,1.57,1.57,0,0,1,.21.34,1.1,1.1,0,0,1,.17.29c.36.56.7,1.12,1,1.7a87.75,87.75,0,0,1,7.7,18.2c.2.62.38,1.27.56,1.92C234.87,185.18,230,235,222.36,279.56Z"/><path class="cls-4" d="M198.8,210.32c-16.29,20.29-40.31,21.29-51.39,21.29s-35.11-1-51.4-21.29c-13.57-16.9-7.11-53.89,4-72.13a18.7,18.7,0,0,0,16.27,9.86,18.13,18.13,0,0,0,11.51-4.15,22,22,0,0,0,39.13,0,18.15,18.15,0,0,0,11.51,4.15,18.72,18.72,0,0,0,16.28-9.86C205.91,156.43,212.37,193.42,198.8,210.32Z"/><path class="cls-2" d="M155,180.07a2.38,2.38,0,0,1,1.34,3.57c-1.78,2.7-5.1,6.78-8.9,6.78s-7.13-4.08-8.91-6.78a2.39,2.39,0,0,1,1.34-3.57,20.46,20.46,0,0,1,15.13,0Z"/><path class="cls-2" d="M165.53,210.88a51.57,51.57,0,0,0-6.4-3.18c-1.81-.55-3.61-1.22-6-1.75s-3.65-.41-5.66-.65a21.53,21.53,0,0,0-5.46.15,30.09,30.09,0,0,0-5.2,1.22,34,34,0,0,0-4.47,2,8.14,8.14,0,0,0-2.65,2.19v0a1,1,0,0,1-1.08.14,1,1,0,0,1-.22-.16,6.34,6.34,0,0,1-1.65-5.86,11,11,0,0,1,3.94-5.66,21,21,0,0,1,7.72-3.74,35,35,0,0,1,9.22-1.14,37.79,37.79,0,0,1,9.16,1.22,20.69,20.69,0,0,1,7.74,3.68,10.07,10.07,0,0,1,3.73,5.69,7.16,7.16,0,0,1-1.41,5.81.93.93,0,0,1-1,.21.58.58,0,0,1-.31-.2Z"/><path class="cls-2" d="M147.41,196a2.09,2.09,0,0,1-2.09-2.08v-7.88a2.09,2.09,0,0,1,4.17,0v7.88A2.08,2.08,0,0,1,147.41,196Z"/><ellipse class="cls-2" cx="113.72" cy="170.98" rx="16.13" ry="12.44" transform="translate(-73.74 254.8) rotate(-80.46)"/><ellipse class="cls-3" cx="110.02" cy="167.04" rx="5.56" ry="3.33" transform="translate(-74.65 243.87) rotate(-79.22)"/><ellipse class="cls-3" cx="118.85" cy="176.27" rx="2.78" ry="1.67" transform="matrix(0.13, -0.99, 0.99, 0.13, -70.99, 271.97)"/><ellipse class="cls-2" cx="179.97" cy="170.98" rx="12.44" ry="16.13" transform="translate(-25.85 32.19) rotate(-9.54)"/><ellipse class="cls-3" cx="183.67" cy="167.04" rx="3.33" ry="5.56" transform="translate(-28 37.31) rotate(-10.78)"/><ellipse class="cls-3" cx="174.84" cy="176.27" rx="1.67" ry="2.78" transform="translate(-20.81 23.43) rotate(-7.24)"/><path class="cls-5" d="M199,104.71c-.6-1.87-1.79-2.37-3.15-2.15-3.3.56-7.68,5.34-7.68,5.34s5.75-12.31,3.07-16.81c-4-6.7-8.75-.25-9.19.36.46-.82,5.53-10.15,1.13-16.34-4.21-5.94-10.65,7.94-11.22,9.19l0,.07c.1-.48,1.44-6.7-.39-8.17s-6,7.49-6,7.49,3.39-13.11-3.26-11.83c-3.31.63-7.86,11.63-7.86,11.63s-.64-11.83-6.14-13.61-11.9,11.45-11.9,11.45-1.66-6.9-6.52-5.72-3,12.18-2.94,12.8c-3.21-6.5-8.58-13.59-12.17-9.65-2.34,2.56-3,7-3,10.19a44.5,44.5,0,0,0,4,9.2s-7.84-3.53-8.17,3a7.62,7.62,0,0,0,4.62,7.85c-2.28-.82-10.28-3.47-12.7-1a2.3,2.3,0,0,0-.63,1.18c-1.1,5.05,25.37,12.53,51.19,12.07S201.57,112.7,199,104.71Z"/><path class="cls-6" d="M111.29,109a5.42,5.42,0,0,0,.62.23Z"/><path class="cls-7" d="M116.75,109a2.66,2.66,0,0,1,.06.61C116.76,109.24,116.75,109,116.75,109Z"/><path class="cls-8" d="M150,121.31c-25.82.46-52.29-7-51.19-12.07a2.3,2.3,0,0,1,.63-1.18c2.06,2.29,8.46,7.56,13.31,6.21,4.26-1.17,4.83-3.52,4.85-4.64.2,1.81,1.1,7.08,4.8,7.41,4.18.37,2.47-4.23,2.21-4.86.3.66,2.87,6,6.11,5.85,3.45-.2,6.52-9,6.52-9s.12,3.49,1.92,3.58A4.05,4.05,0,0,0,142,118c4.41,1.38,8.5-9.86,8.5-9.86s2.55,1.77,4.09-1.78c0,0-.38,11.88,5,11.75s5.11-7.61,5.11-7.61,2.21,7.11,7.82,6.11a9.54,9.54,0,0,0,7.28-5.72s1.15,4,4.34,3.16c2.75-.67,10.12-4.27,11.65-11.52,1.36-.22,2.55.28,3.15,2.15C201.57,112.7,175.82,120.83,150,121.31Z"/><path class="cls-9" d="M144.9,97.9c-.06.58,2.84-7.1,8.27-3.75C153.17,94.15,146.19,86.06,144.9,97.9Z"/><path class="cls-9" d="M167.5,103.43s3.75-5.14,7.49-3.75,3.74,3.75,3.74,3.75-.12-6.71-4.13-7.11S167.5,103.43,167.5,103.43Z"/><path class="cls-9" d="M114.69,103.43s0-4.48,3.1-5.5a3.35,3.35,0,0,1,4.26,1.94S117.47,97.61,114.69,103.43Z"/><path class="cls-10" d="M133.8,103.77s.63,5.22,4,5.56,4.64-4.82,4.64-4.82-2.36,2.92-5.28,2S133.8,103.77,133.8,103.77Z"/><path class="cls-11" d="M136.82,101.36a2.35,2.35,0,0,1,1.8-2.67c2.23-.79,5.26,2.6,5.26,2.6s3.59-5,5.82-5,4.76,5.44,4.76,5.44,1.22-3.53,3.53-4.15,4.25,2.42,4.25,2.42l.27-.22-.11,0c-.52.17,3.7-9.89,7.31-18.29.31-.73.62-1.44.91-2.13h0c2.13-4.94,3.86-8.88,3.93-9a20.81,20.81,0,0,1-3.7,1.69,17.72,17.72,0,0,1-4.56.93c-7.95.54-6.48-4.06-6.48-4.06a19.38,19.38,0,0,1-3.68,1.43c-.7.13-1-.65-1-1.39-.23.87-1.07,2-3.74,2.81-4.79,1.39-9.51-5.18-9.51-5.18s.13,13.3-11.65,13.15L131.3,84l.72,2.8L135.46,100C136.25,100.72,136.82,101.36,136.82,101.36Z"/><path class="cls-12" d="M155.05,67.73a6.89,6.89,0,0,0,0,1.2A2.09,2.09,0,0,0,155.05,67.73Z"/><path class="cls-13" d="M155.05,67.73a6.89,6.89,0,0,0,0,1.2A2.09,2.09,0,0,0,155.05,67.73Z"/><path class="cls-14" d="M180.18,68.72a20.79,20.79,0,0,1-4.77,3.76,19,19,0,0,1-8.25,2.63c-8,.54-6.48-4.06-6.48-4.06A19.67,19.67,0,0,1,157,72.48c-.7.13-1-.65-1.05-1.39a2,2,0,0,0,0-1.2,6.35,6.35,0,0,0,0,1.2c-.22.87-1.07,2-3.74,2.81-4.78,1.39-9.5-5.18-9.5-5.18s.12,13.3-11.65,13.15-10.31-13.15-10.31-13.15-14.18,1.3-17.13-5.08a6.57,6.57,0,0,1,.55-6.36A17.86,17.86,0,0,1,109.72,52s-2-6.83,1.68-11a1.29,1.29,0,0,1,.16-.18c3.86-4.14,11.83-.94,11.83-.94S120,33.1,125,29.72s9.41,2.33,9.41,2.33-.78-2.84.89-4.09,2.24,1.76,2.24,1.76c0-.43.73-13.34,7.17-13s7,11.2,7,11.2,0-5.62,2.39-4.72c2.12.79,3.52,8,3.81,9.6,0,.21.06.33.06.33s0-.21.13-.56c.39-1.57,1.69-5.91,3.85-5.33,2.64.73,2.57,6,2.57,6s3.2-6.59,9.08-3.53,9.75,12.09,8.28,17.33a4.62,4.62,0,0,1,.74-.44,5.27,5.27,0,0,1,6.13.63,8.33,8.33,0,0,1,1.41,1.59C193.79,54.13,191.77,65.83,180.18,68.72Z"/><path class="cls-15" d="M125,26.89c.39-1.09-2.18-8.12-4-8.1S125,26.89,125,26.89Z"/><path class="cls-16" d="M153.13,20S151.29,6.85,154.24,7,153.13,20,153.13,20Z"/><path class="cls-17" d="M173.92,28c-.55-.33,3.5-6.45,4.6-4.77S173.92,28,173.92,28Z"/><path class="cls-18" d="M131.48,96.28c-.55-2.18-3.31-10-4.6-8.49S131.48,96.28,131.48,96.28Z"/><path class="cls-19" d="M153.78,95.59c-.45-.61.76-10.87,2.44-9.87S153.78,95.59,153.78,95.59Z"/><path class="cls-20" d="M165,99.27s2.73-8.9,4.45-7.09S165,99.27,165,99.27Z"/><path class="cls-21" d="M152.08,78.61S150.36,83,146.87,84a3.22,3.22,0,0,1-4.29-2.16s.22,5.72-3.89,6.69A7.93,7.93,0,0,1,132,86.78L131.3,84c1.77,1.22,5,3.13,7,2.32,2.81-1.17,3.52-7.69,3.52-7.69s2.53,3.56,4.76,3.89S152.08,78.61,152.08,78.61Z"/><path class="cls-21" d="M170.62,79.37h0c-.29.69-.6,1.4-.91,2.13-.79-1.38-1.88-2.86-3.18-3.33-2.61-1-4.73,5.49-4.73,5.49s-1-2.15-1.62-2-.55,1.77-.54,2c-.08-.41-1-5.25,0-5.2s1.73,2.76,1.73,2.76,2.49-5.4,5.73-5.51C169.54,75.61,170.22,78,170.62,79.37Z"/><path class="cls-22" d="M139.45,93.73s3.24.14,4.32,2.55c0,0,.25-3.57,3.1-4.09s3.89,1.21,3.89,1.21-1.23-3.73-4.22-2.78a4.23,4.23,0,0,0-3.1,3.65A3.07,3.07,0,0,0,139.45,93.73Z"/><path class="cls-23" d="M186.63,43.61c-.43-.51-.65-.78-.56-.71A3.46,3.46,0,0,1,186.63,43.61Z"/><path class="cls-24" d="M180.18,68.72a20.79,20.79,0,0,1-4.77,3.76,19,19,0,0,1-8.25,2.63c-8,.54-6.48-4.06-6.48-4.06A19.67,19.67,0,0,1,157,72.48c-.7.13-1-.65-1.05-1.39-.22.87-1.07,2-3.74,2.81-4.78,1.39-9.5-5.18-9.5-5.18s.12,13.3-11.65,13.15-10.31-13.15-10.31-13.15-14.18,1.3-17.13-5.08a6.57,6.57,0,0,1,.55-6.36,10,10,0,0,0,6.44,7c5,1.55,12.76-2,12.76-2s-.23,9.63,5.1,11.5S142.84,67,141.29,62.15c.23.47,4,8.22,8.34,7.74,4.47-.5,5-9.2,5-9.2s5.45.93,5.43-3.54c0,0,5.73-6.22,8.9,1.86a6,6,0,0,0,6.48,4.5c5.33-.45,8.78-3.91,6.91-7.51,0,0,7.91.82,8.07-2.82a14.23,14.23,0,0,0-1.69-5.94,8.33,8.33,0,0,1,1.41,1.59C193.79,54.13,191.77,65.83,180.18,68.72Z"/><path class="cls-25" d="M115.81,52c.28-.58,1.9-3.15,6.7-2.66s6.1,3.87,6.1,3.87a12.44,12.44,0,0,0-6.4-2A20.11,20.11,0,0,0,115.81,52Z"/><path class="cls-26" d="M146,46.66c.21-.31.74-6.36,5.66-6.5S156,43.61,156,43.61a4.92,4.92,0,0,0-4.39-1.72C148.92,42.32,146,46.66,146,46.66Z"/><path class="cls-27" d="M158.85,51.51a8.69,8.69,0,0,0,6.91,1c4-1.08,4.18-4.39,4.18-4.39s1.47,5-4.22,7S158.85,51.51,158.85,51.51Z"/><path class="cls-28" d="M157.86,32.84A26.36,26.36,0,0,0,156,35.41s-2.23-6.91-7.27-8.52-6.22,5.78-6.22,5.78S140,29.5,137,31.52s-2.25,5.95-2.21,6.18c-.14-.22-3.05-4.81-6.33-2s-.17,11.09,0,11.52c-.11-.17-1.08-1.67-5.14-5-3-2.47-8.36-2.3-11.87-1.21a1.29,1.29,0,0,1,.16-.18c3.86-4.14,11.83-.94,11.83-.94a11.71,11.71,0,0,1-1.12-5.34h0A6,6,0,0,1,125,29.72a5.75,5.75,0,0,1,6.16-.32h0A10.65,10.65,0,0,1,134.36,32c0-.16-.72-2.87.9-4.08s2.24,1.76,2.24,1.76a30.27,30.27,0,0,1,1.23-7h0c1-3.16,2.79-6.16,5.94-6,2.44.15,4,1.79,5.08,3.78h0A20.74,20.74,0,0,1,151.66,28s0-5.62,2.39-4.72C156.17,24,157.57,31.21,157.86,32.84Z"/><path class="cls-28" d="M179.44,51.22C182,45.56,175,33,170.11,32.53S163.6,37,163.6,37s-.57-5.86-2.39-6.44c-.88-.28-2.12.86-3.16,2.1.39-1.57,1.69-5.91,3.85-5.33,2.64.73,2.57,6,2.57,6s3.2-6.59,9.08-3.53,9.75,12.09,8.28,17.33a4.62,4.62,0,0,1,.74-.44A26.25,26.25,0,0,1,179.44,51.22Z"/><path class="cls-29" d="M149.75,20.54a8.5,8.5,0,0,0-5-2.41c-2.27-.16-4.56,2.4-6,4.6,1-3.16,2.79-6.16,5.94-6C147.11,16.91,148.71,18.55,149.75,20.54Z"/><path class="cls-30" d="M131.12,29.4c-2.69.22-6.93,1.28-8.85,5.11A6,6,0,0,1,125,29.72,5.75,5.75,0,0,1,131.12,29.4Z"/><path class="cls-31" d="M134.71,60.62l-.08.28A.73.73,0,0,0,134.71,60.62Z"/><path class="cls-32" d="M146.9,53.49s-3-2.1-4.35-1.23a3.19,3.19,0,0,0-1.33,2.47h0a5,5,0,0,0-2.49-.21c-3.52.58-3.8,4.92-4,6.1.29-.88,1.37-3.57,4-4.26a6.28,6.28,0,0,1,5.51,1.35A5.91,5.91,0,0,0,141.76,55h0C143.22,52.19,146.9,53.49,146.9,53.49Z"/></g></g></svg>