<svg id="Calque_1" data-name="Calque 1" xmlns="http://www.w3.org/2000/svg" viewBox="0 0 300 300"><defs><style>.cls-1{fill:#183a66;}.cls-2{fill:#fff;}.cls-3{fill:#f4f4f4;}</style></defs><path class="cls-1" d="M300,149.6a149.62,149.62,0,0,1-72.4,128.23c-.88.54-1.77,1.08-2.68,1.59l-.35.2c-.8.46-1.62.92-2.44,1.36a149.87,149.87,0,0,1-142.68.54c-.93-.47-1.8-1-2.7-1.49l-.73-.41c-.66-.36-1.32-.74-2-1.14A149.72,149.72,0,1,1,300,149.6Z"/><path class="cls-2" d="M102.75,116.84s-7.28-15-10-50.2c-2.62-34.43-32.56-16-33.64,23.22-.87,31.81,29.28,41.49,29.28,41.49Z"/><path class="cls-2" d="M96.78,126.81a3,3,0,0,1-.42,0c-.27-.06-27.23-5.39-30.24-29.12-2.16-17.08,3-32,9.29-36.52a6.25,6.25,0,0,1,6.52-.91c3.78,1.79,6,7.64,6.53,17.37,1.4,24.34,10.12,38.22,10.21,38.36a2.25,2.25,0,1,1-3.79,2.42c-.38-.6-9.44-15-10.91-40.52C83.47,69,81.51,65,80,64.29c-.19-.09-.77-.37-2,.5C73.61,68,68.54,81,70.58,97.1c2.61,20.52,26.37,25.21,26.61,25.26a2.24,2.24,0,0,1-.41,4.45Z"/><path class="cls-2" d="M197.34,116.84s7.28-15,10-50.2c2.62-34.43,32.56-16,33.64,23.22.87,31.81-29.28,41.49-29.28,41.49Z"/><path class="cls-2" d="M203.31,126.81a2.24,2.24,0,0,1-.41-4.45c1-.19,24-4.81,26.61-25.26,2-16.08-3-29.1-7.47-32.31-1.18-.86-1.76-.59-1.95-.5-1.52.72-3.47,4.7-4,13.57-1.46,25.5-10.52,39.92-10.9,40.52a2.25,2.25,0,1,1-3.79-2.42h0c.09-.13,8.81-14.12,10.21-38.36.56-9.73,2.75-15.58,6.53-17.37a6.25,6.25,0,0,1,6.52.91C231,65.68,236.13,80.58,234,97.66c-3,23.73-30,29.06-30.24,29.12A3,3,0,0,1,203.31,126.81Z"/><path class="cls-2" d="M224.57,279.62c-.8.46-1.62.92-2.44,1.36a149.87,149.87,0,0,1-142.68.54c-.93-.47-1.8-1-2.7-1.49l-.73-.41C68.4,235,63.59,185.22,72.06,155c.18-.65.36-1.3.57-1.93a85.49,85.49,0,0,1,8.29-19.22c.32-.59.68-1.16,1-1.72a577.69,577.69,0,0,1,.41-.66c.34-.55.7-1.07,1.06-1.61.79-1.18,1.58-2.33,2.41-3.43.13-.15.25-.31.38-.47a1.17,1.17,0,0,1,.2-.27,1.68,1.68,0,0,1,.28-.34c.63-.84,1.28-1.65,2-2.45a69.41,69.41,0,0,1,4.93-5.35c.48-.47,1-1,1.47-1.4a3.08,3.08,0,0,1,.27-.25,1.8,1.8,0,0,1,.29-.26c.48-.45,1-.88,1.46-1.31s1.06-.92,1.61-1.35,1.15-1,1.74-1.39a1.92,1.92,0,0,1,.22-.18,14.25,14.25,0,0,1-.38-1.72A15.47,15.47,0,0,1,100,107c0-.22,0-.45,0-.68a18.57,18.57,0,0,1,.74-5.23,19.12,19.12,0,0,1,29.88-9.7c3.36-6.6,10.93-11.2,19.71-11.2s16.34,4.6,19.7,11.2a19.07,19.07,0,0,1,30.62,14.93,9,9,0,0,1,0,1v.07a17.73,17.73,0,0,1-.66,4c.45.33.9.69,1.33,1.07a1.76,1.76,0,0,1,.34.25,3,3,0,0,1,.32.27,17.82,17.82,0,0,1,1.68,1.45c.48.38.95.81,1.4,1.24s1,.87,1.45,1.34a3.84,3.84,0,0,1,.29.27l.26.28c.5.47,1,.94,1.43,1.44,1.44,1.46,2.81,3,4.14,4.64.66.79,1.29,1.58,1.92,2.41.1.12.15.23.24.34l0,0,.2.28c.11.15.25.33.36.5.86,1.16,1.65,2.33,2.42,3.53a19.28,19.28,0,0,1,1.05,1.66,1.21,1.21,0,0,1,.2.34.92.92,0,0,1,.18.29c.37.57.7,1.13,1,1.71A88.45,88.45,0,0,1,227.94,153c.21.63.39,1.28.57,1.93C237,185.22,232.15,235,224.57,279.62Z"/><path class="cls-3" d="M200.71,210.72c-16.4,20.42-40.58,21.43-51.74,21.43s-35.34-1-51.74-21.43c-13.67-17-7.16-54.26,4.07-72.63A18.82,18.82,0,0,0,117.68,148a18.23,18.23,0,0,0,11.59-4.17,22.15,22.15,0,0,0,39.39,0A18.25,18.25,0,0,0,180.25,148a18.82,18.82,0,0,0,16.39-9.93C207.87,156.46,214.37,193.7,200.71,210.72Z"/><path class="cls-1" d="M156.59,180.26a2.4,2.4,0,0,1,1.34,3.59c-1.79,2.72-5.13,6.83-9,6.83s-7.17-4.11-9-6.83a2.41,2.41,0,0,1,1.35-3.59,20.62,20.62,0,0,1,15.24,0Z"/><path class="cls-1" d="M129.52,192.22c1.46,2.68,2.48,4.65,3.95,6.16a9.84,9.84,0,0,0,2.47,1.91,6.5,6.5,0,0,0,3.13.73,7.16,7.16,0,0,0,3.1-.79,9.1,9.1,0,0,0,2.48-1.87,13,13,0,0,0,1.87-2.66c.6-1,1.18-2.14,2.1-3.48h0a.41.41,0,0,1,.57-.11.46.46,0,0,1,.12.12,6.89,6.89,0,0,1,.88,4.65,9.66,9.66,0,0,1-2.1,4.5,10.22,10.22,0,0,1-4.12,3,12.8,12.8,0,0,1-4.91.91,14.24,14.24,0,0,1-4.89-1,10.1,10.1,0,0,1-4.12-2.93,9,9,0,0,1-2-4.52,7.84,7.84,0,0,1,.75-4.61.4.4,0,0,1,.53-.17.52.52,0,0,1,.17.16Z"/><path class="cls-1" d="M149.32,192.22c1.46,2.68,2.48,4.65,4,6.16a9.84,9.84,0,0,0,2.47,1.91,6.5,6.5,0,0,0,3.13.73,7.16,7.16,0,0,0,3.1-.79,9.05,9.05,0,0,0,2.47-1.87,12.64,12.64,0,0,0,1.88-2.66c.6-1,1.18-2.14,2.1-3.48h0a.4.4,0,0,1,.57-.11.46.46,0,0,1,.12.12,6.83,6.83,0,0,1,.87,4.65,9.56,9.56,0,0,1-2.1,4.5,10.19,10.19,0,0,1-4.11,3,12.8,12.8,0,0,1-4.91.91,14.24,14.24,0,0,1-4.89-1,10.1,10.1,0,0,1-4.12-2.93,9,9,0,0,1-2-4.52,7.84,7.84,0,0,1,.75-4.61.4.4,0,0,1,.53-.17.41.41,0,0,1,.16.16Z"/><path class="cls-1" d="M149,196.31a2.1,2.1,0,0,1-2.1-2.1v-7.93a2.1,2.1,0,0,1,4.2,0v7.93A2.1,2.1,0,0,1,149,196.31Z"/><ellipse class="cls-1" cx="115.06" cy="171.11" rx="16.23" ry="12.52" transform="matrix(0.17, -0.99, 0.99, 0.17, -72.76, 256.22)"/><ellipse class="cls-2" cx="111.33" cy="167.14" rx="5.6" ry="3.36" transform="translate(-73.69 245.24) rotate(-79.22)"/><ellipse class="cls-2" cx="120.22" cy="176.44" rx="2.8" ry="1.68" transform="translate(-69.96 273.47) rotate(-82.76)"/><ellipse class="cls-1" cx="181.75" cy="171.11" rx="12.52" ry="16.23" transform="translate(-25.84 32.49) rotate(-9.54)"/><ellipse class="cls-2" cx="185.48" cy="167.14" rx="3.36" ry="5.6" transform="translate(-27.99 37.65) rotate(-10.78)"/><ellipse class="cls-2" cx="176.59" cy="176.44" rx="1.68" ry="2.8" transform="translate(-20.82 23.65) rotate(-7.24)"/></svg>