<svg id="Calque_1" data-name="Calque 1" xmlns="http://www.w3.org/2000/svg" viewBox="0 0 300 300"><defs><style>.cls-1{fill:#183a66;}.cls-2{fill:#fff;}.cls-3{fill:#f4f4f4;}</style></defs><path class="cls-1" d="M300.45,150.77A149.64,149.64,0,0,1,228.05,279c-.88.54-1.78,1.07-2.69,1.59l-.35.2c-.79.46-1.61.92-2.44,1.36a149.85,149.85,0,0,1-142.67.54c-.93-.47-1.81-1-2.71-1.49l-.72-.41c-.66-.36-1.32-.75-2-1.15A149.72,149.72,0,1,1,300.45,150.77Z"/><path class="cls-2" d="M103.19,118s-7.27-15-10-50.19C90.62,33.39,60.67,51.87,59.6,91c-.88,31.8,29.27,41.49,29.27,41.49Z"/><path class="cls-2" d="M97.23,128a2,2,0,0,1-.42,0c-.27,0-27.23-5.38-30.24-29.11-2.17-17.08,3-32,9.28-36.52a6.26,6.26,0,0,1,6.52-.91c3.78,1.79,6,7.63,6.54,17.37C90.31,103.11,99,117,99.12,117.14a2.25,2.25,0,1,1-3.79,2.42c-.39-.6-9.44-15-10.91-40.52-.51-8.87-2.46-12.85-4-13.57-.19-.09-.77-.37-2,.49C74.05,69.18,69,82.2,71,98.28c2.6,20.51,26.37,25.21,26.61,25.25a2.25,2.25,0,0,1-.41,4.46Z"/><path class="cls-2" d="M197.79,118s7.27-15,10-50.19c2.63-34.43,32.57-15.95,33.64,23.22.88,31.8-29.27,41.49-29.27,41.49Z"/><path class="cls-2" d="M203.76,128a2.25,2.25,0,0,1-.42-4.46c1-.18,24-4.8,26.61-25.25,2-16.08-3-29.1-7.46-32.32-1.19-.86-1.76-.58-2-.49-1.52.72-3.47,4.7-4,13.57C215.1,104.54,206,119,205.65,119.56a2.25,2.25,0,1,1-3.79-2.42h0c.09-.14,8.82-14.12,10.21-38.36.56-9.74,2.76-15.58,6.54-17.37a6.25,6.25,0,0,1,6.52.91c6.26,4.54,11.45,19.44,9.28,36.52-3,23.73-30,29.06-30.24,29.11A2,2,0,0,1,203.76,128Z"/><path class="cls-2" d="M225,280.8c-.79.46-1.61.92-2.44,1.36a149.85,149.85,0,0,1-142.67.54c-.93-.47-1.81-1-2.71-1.49l-.72-.41c-7.62-44.63-12.43-94.4-4-124.66.18-.65.36-1.31.56-1.93A85.75,85.75,0,0,1,81.36,135c.32-.59.68-1.16,1-1.72a577.69,577.69,0,0,1,.41-.66c.34-.56.7-1.08,1.06-1.61.78-1.18,1.57-2.33,2.41-3.43.13-.15.25-.31.38-.47a1.17,1.17,0,0,1,.2-.27,1.68,1.68,0,0,1,.28-.34c.63-.84,1.27-1.65,2-2.46a69.4,69.4,0,0,1,4.94-5.34c.48-.47,1-1,1.47-1.4l.26-.25a1.86,1.86,0,0,1,.29-.27c.48-.45,1-.87,1.47-1.3s1.06-.92,1.61-1.35,1.14-1,1.73-1.4a1.92,1.92,0,0,1,.22-.18,13.68,13.68,0,0,1-.38-1.71,15.58,15.58,0,0,1-.3-2.66c0-.22,0-.45,0-.68a18.22,18.22,0,0,1,.75-5.23A19.11,19.11,0,0,1,131,92.56c3.36-6.61,10.93-11.2,19.72-11.2s16.34,4.59,19.7,11.2a19.07,19.07,0,0,1,30.62,14.93,9,9,0,0,1,0,1v.07a17.54,17.54,0,0,1-.66,3.94c.45.33.9.7,1.33,1.08a1.76,1.76,0,0,1,.34.25c.11.09.22.18.31.27a19.31,19.31,0,0,1,1.69,1.45c.48.38.95.8,1.4,1.23s1,.88,1.44,1.35a3.84,3.84,0,0,1,.29.27l.27.28c.5.47,1,.94,1.43,1.43,1.43,1.47,2.81,3,4.14,4.65.65.79,1.28,1.58,1.91,2.41.1.12.16.23.25.34l0,0,.2.27c.11.15.25.33.36.51.86,1.16,1.64,2.33,2.41,3.52.38.54.74,1.11,1.06,1.67a1.21,1.21,0,0,1,.2.34.92.92,0,0,1,.18.29c.37.57.7,1.12,1,1.71a89,89,0,0,1,7.75,18.33c.21.62.38,1.28.56,1.93C237.42,186.4,232.59,236.16,225,280.8Z"/><path class="cls-3" d="M201.16,211.89c-16.4,20.43-40.58,21.44-51.75,21.44s-35.34-1-51.74-21.44c-13.66-17-7.16-54.25,4.08-72.62a18.81,18.81,0,0,0,16.38,9.93A18.22,18.22,0,0,0,129.71,145a22.15,22.15,0,0,0,39.4,0,18.25,18.25,0,0,0,11.59,4.17,18.81,18.81,0,0,0,16.38-9.93C208.32,157.64,214.82,194.88,201.16,211.89Z"/><path class="cls-1" d="M157,181.44a2.4,2.4,0,0,1,1.35,3.59c-1.8,2.72-5.14,6.83-9,6.83s-7.17-4.11-9-6.83a2.4,2.4,0,0,1,1.35-3.59,20.59,20.59,0,0,1,15.23,0Z"/><path class="cls-1" d="M149.41,197.49a2.1,2.1,0,0,1-2.09-2.1v-7.93a2.1,2.1,0,1,1,4.19,0v7.93A2.1,2.1,0,0,1,149.41,197.49Z"/><ellipse class="cls-1" cx="115.5" cy="172.29" rx="16.23" ry="12.52" transform="matrix(0.17, -0.99, 0.99, 0.17, -73.55, 257.65)"/><ellipse class="cls-2" cx="111.77" cy="168.32" rx="5.6" ry="3.36" transform="translate(-74.48 246.63) rotate(-79.22)"/><ellipse class="cls-2" cx="120.66" cy="177.62" rx="2.8" ry="1.68" transform="translate(-70.74 274.94) rotate(-82.76)"/><ellipse class="cls-1" cx="182.2" cy="172.29" rx="12.52" ry="16.23" transform="translate(-26.03 32.58) rotate(-9.54)"/><ellipse class="cls-2" cx="185.93" cy="168.32" rx="3.36" ry="5.6" transform="translate(-28.2 37.75) rotate(-10.78)"/><ellipse class="cls-2" cx="177.04" cy="177.62" rx="1.68" ry="2.8" transform="translate(-20.97 23.72) rotate(-7.24)"/><path class="cls-1" d="M169.41,195.43a9.31,9.31,0,0,1,1.75,7.54,14.38,14.38,0,0,1-4.19,7.29,20.81,20.81,0,0,1-8.21,4.82,31.26,31.26,0,0,1-9.8,1.47A33.83,33.83,0,0,1,139.2,215a20.64,20.64,0,0,1-8.23-4.74,13.43,13.43,0,0,1-4-7.34,10.66,10.66,0,0,1,1.49-7.47Z"/></svg>