<svg id="Calque_1" data-name="Calque 1" xmlns="http://www.w3.org/2000/svg" viewBox="0 0 300 300"><defs><style>.cls-1{fill:#fff;}</style></defs><path class="cls-1" d="M253.33,119.36A100.59,100.59,0,1,0,87.58,196c-.12-2-.28-4-.44-6.15-.15-1.91-.27-3.9-.39-5.85-.16-3-.28-6-.36-8.92-.08-1.15-.08-2.27-.12-3.38a.47.47,0,0,0-.32-.48.49.49,0,0,0-.56.2,36.25,36.25,0,0,0-2,3.38,1.74,1.74,0,0,1-.16.28c-1.47,2.59-2.34,4-3.34,4.38a3.55,3.55,0,0,1-4-.6c-.52-.52-1.19-1.71-.32-3.78v0c.2-.4.48-1.15.84-2.11.51-1.47,1.23-3.38,2-5.33a34.65,34.65,0,0,1,3.26-6.33,20.91,20.91,0,0,0,1.59-2.59,34.31,34.31,0,0,0,3.07-7.21c0-.08,0-.2.08-.27a36,36,0,0,1,4.3-8.92,25.64,25.64,0,0,1,6.37-6.65c.39-.28.83-.56,1.27-.84,4.82-3.18,11.5-6.36,24.88-8.91,1.63-.32,3.38-.64,5.25-.92a68.88,68.88,0,0,1,27.31.92,66.44,66.44,0,0,1,8.36,2.51c3,1.11,5.41,2.26,7.21,3.1a1.42,1.42,0,0,1,.27.12,21.87,21.87,0,0,0,2.71,1.15c1.75.56,4.22.68,5.85-.51a4.7,4.7,0,0,0,1.64-4,18.12,18.12,0,0,0-.16-2.35c-.2-2.07-.6-4.7-1.08-7.57-.32-1.75-.64-3.54-1-5.33-.2-1.15-.4-2.35-.64-3.5-.64-3.82-1.27-7.49-1.51-10.19v0c0-.4,0-.76-.08-1.12a17.13,17.13,0,0,1,0-2.43v0c.43-9.23,4.22-33.51,13.09-39.44L191.75,58h0a78.39,78.39,0,0,0-2.56,14.84A35.37,35.37,0,0,1,202.9,58h0L204,59.9a4.06,4.06,0,0,0-.52.36c-2.35,1.67-4.5,5.37-5.81,8.91a19.46,19.46,0,0,0-1.35,6c0,.68.87,1.16,2.22,1.44a46,46,0,0,0,7.17.67,59.4,59.4,0,0,1,11.38,1.32c5.78,1.51,7.81,4.57,8.48,6.92a5.49,5.49,0,0,1,.32,1.48,10.49,10.49,0,0,1-1.47,6.33,14,14,0,0,1-2.83,3.54,10,10,0,0,1-2.15,1.47,7.27,7.27,0,0,1-3.86.52,42.29,42.29,0,0,1-4.66-.56c-3-.48-6.36-1-8.28-.36a2.86,2.86,0,0,0-.83.44,2.11,2.11,0,0,0-.76,1.59,39.57,39.57,0,0,0,.32,9.44,84.11,84.11,0,0,0,1.79,8.91c.52,2.11,1.08,4.14,1.59,6,.32,1.16.64,2.27.92,3.31a43.44,43.44,0,0,1,1.31,6.41,10.41,10.41,0,0,1,.12,1.51c0,1.12-.16,3.46-.4,6.61-.23,2.51-.51,5.57-.83,8.92-.76,8-1.79,17.55-2.67,25.83-.2,2-.4,3.9-.64,5.69v0c-.27,2.79-.55,5.26-.75,7.33-.36,3.14-.6,5.25-.64,5.65v11.81A100.57,100.57,0,0,0,253.33,119.36Z"/><path class="cls-1" d="M88.86,197.06l-.27-.22Z"/><path class="cls-1" d="M194.74,76.93a1.17,1.17,0,0,1-.2-.27,2.84,2.84,0,0,1-.35-1.44,19.3,19.3,0,0,1,1.23-6,33.5,33.5,0,0,1,2.64-5.76,53,53,0,0,0-8.41,12.14C190.26,76.11,192.74,76.61,194.74,76.93Z"/><path class="cls-1" d="M199.44,191.86c.2-2,.52-4.78.88-8,.27-2.55.59-5.46.91-8.48.84-7.88,1.75-16.8,2.47-24.24.36-3.35.64-6.41.84-8.92.27-3.19.43-5.53.43-6.61,0-2.39-1-6.21-2.27-10.67-.55-2.07-1.19-4.3-1.75-6.61a82.09,82.09,0,0,1-1.75-8.91,43.46,43.46,0,0,1-.32-9.64,4.3,4.3,0,0,1,1.63-3.1,5.52,5.52,0,0,1,2.47-1h0c2.35-.47,5.34,0,8.28.48,1.56.24,3.15.48,4.46.56a6.1,6.1,0,0,0,2.75-.28c2.82-1.47,5.65-5.49,5.25-9.19a6,6,0,0,0-.44-1.72c-.91-2.27-3.22-3.9-6.76-4.81a53.68,53.68,0,0,0-10.91-1.24,37.45,37.45,0,0,1-8.48-1h0v0A51.48,51.48,0,0,1,189.92,77a4.16,4.16,0,0,1-1.29-.95c-1.82-2.07-.11-11.44.85-15.85-6.72,8.33-10.26,30.88-9.9,37.8.16,2.75.91,7.13,1.71,11.71.16,1,.36,2,.52,2.9.27,1.63.59,3.23.83,4.78.6,3.22,1,6.21,1.24,8.48a17.51,17.51,0,0,1,.15,2.35,6.78,6.78,0,0,1-2.54,5.77,5.51,5.51,0,0,1-1.48.79,9.62,9.62,0,0,1-6.29.08,29.12,29.12,0,0,1-3-1.31c-1.55-.72-3.62-1.67-6.17-2.67a66.89,66.89,0,0,0-24-4.65,69.52,69.52,0,0,0-11.11.79,3.5,3.5,0,0,0-.64.08c-13.61,2.15-21.13,4.86-26.27,7.68a45.24,45.24,0,0,0-4.22,2.63,22.37,22.37,0,0,0-4.94,4.86,31.89,31.89,0,0,0-4.65,8.92c-.12.35-.2.63-.28.87a34.7,34.7,0,0,1-2.71,6.61,26,26,0,0,1-2.27,3.82,31.33,31.33,0,0,0-2.7,5.1c-1,2.19-1.76,4.45-2.35,6.09-.2.51-.36,1-.52,1.39s-.24.6-.32.84c-.32.67-.36,1.23-.12,1.47s.8.32,1.63,0a11.34,11.34,0,0,0,1.6-2.35c.27-.44.51-.92.75-1.31.72-1.32,1.48-2.63,2.15-3.63a2.71,2.71,0,0,1,3-1,2.66,2.66,0,0,1,1.87,2.51c0,1.11.08,2.27.12,3.42.08,2.91.24,5.93.4,8.92.12,2,.23,3.94.35,5.85q.3,4.21.6,8.09a100.13,100.13,0,0,0,17.24,11.13,24.11,24.11,0,0,1,.67-2.82A40,40,0,0,1,123.77,184a38,38,0,0,1,11-5.22,41.08,41.08,0,0,1,5-1h0a33.44,33.44,0,0,1,5.33-.4,37.43,37.43,0,0,1,12.58,2.15,31.94,31.94,0,0,1,5.38,2.39,28.54,28.54,0,0,1,3.42,2.07,38.12,38.12,0,0,1,6.81,5.89,39.66,39.66,0,0,1,6.25,8.91,36.91,36.91,0,0,1,2.94,7.49A37.39,37.39,0,0,1,184,215l-2.19.67a2.16,2.16,0,0,0,0-.51,36.14,36.14,0,0,0-1.56-8.92,35.19,35.19,0,0,0-3.1-7.49,37.72,37.72,0,0,0-19.94-17.11,34.48,34.48,0,0,0-12-2.11,33.44,33.44,0,0,0-5.69.48,28.36,28.36,0,0,0-4.9,1.15,36.32,36.32,0,0,0-6.64,2.83,38.11,38.11,0,0,0-8.6,6.52,36.88,36.88,0,0,0-6.09,8.24,37.54,37.54,0,0,0-3.15,7.49,25.18,25.18,0,0,0-.91,3.81A100.76,100.76,0,0,0,199,208.7V195.6C199,195.48,199.16,194.13,199.44,191.86Z"/><polygon class="cls-1" points="191.76 58.03 191.75 58.02 191.75 58.03 191.76 58.03"/><polygon class="cls-1" points="191.76 58.01 191.75 58.01 191.75 58.02 191.76 58.01"/><path class="cls-1" d="M82.39,235.49a4.3,4.3,0,0,1,2-.84c.77,0,1.53,2,1.6,2.57a27.15,27.15,0,0,1,.57,3.84c0,3.2,0,4.1-.06,4.87-.13,1.41-.45,2.82-.45,3.85,0,1.85-.19,2.62-.19,3.52s.19,2.31.19,4.23c0,.58,0,1.22-.06,1.86-.26,3.46-.51,6.15-.71,7.75-.19,1.41-.38,4.87-.38,5.83.06.64.06,2.95.06,4,0,.52-.06,1-.06,1.48s.06.89.38,1.09a10.41,10.41,0,0,0,2.5.57c1.48.32,3.08.13,3.91.32a5.25,5.25,0,0,0,1.09.13,2.52,2.52,0,0,0,1.41-.32,6.59,6.59,0,0,1,2.76-.7c.89,0,1.21.32,1.4,1.15,0,.13.07.19.07.32,0,.64-.51,1-1.41,1.28s-2,.19-3.53.51a5.7,5.7,0,0,1-1,.13c-.83,0-1.6-.19-2.56-.19s-1.22.06-1.54.06c-1,0-2-.13-3.65-.13a16.66,16.66,0,0,1-1.73.13,2.13,2.13,0,0,1-1-.13c-.77-.32-2.37-.19-2.37-1.47,0-.83.06-2.31.06-3.52a12.82,12.82,0,0,0-.06-1.61c0-.25-.07-.63-.07-1,0-1.28.13-3,.26-4.36,0-.19.06-.32.06-.51.13-1.47.58-2.18.58-3.14,0-.58-.07-.83-.07-1.09,0-.7.13-1.54.13-2.24,0-.26-.06-.45-.06-1.41,0-1.67.19-5,.19-7,0-.52-.06-.9-.06-1.16s-.07-.64-.07-1c0-1.47.26-3.14.51-3.27a.13.13,0,0,0,.13-.12c0-.26-.38-.84-.38-1.28,0-.77.25-1.61.25-2.38a2.35,2.35,0,0,0-.06-.64,12,12,0,0,1-.26-2.69,10,10,0,0,1,.07-1.41c.13-1.85.25-3.78.25-4.55S81.75,236,82.39,235.49Z"/><path class="cls-1" d="M125.46,235.94c0,1.47.77,2.75.77,4.48,0,.77.06,1.28.06,1.79,0,.9-.38,1.8-.38,2.82s.13,3.59.13,5.77c0,1.35,0,2.63.06,3.21a23.82,23.82,0,0,1,.39,3.52,11.2,11.2,0,0,1-.2,1.66,14.42,14.42,0,0,0,.2,2.31c0,.13-.2,3.59-.2,5.58,0,1.34.07,3.39.07,5a12,12,0,0,1-.07,1.8,6.9,6.9,0,0,0-.13,1.6c0,.9.13,1.79.13,4.42a4.54,4.54,0,0,1-.06.9,8.89,8.89,0,0,1-.39,2,9.57,9.57,0,0,1-2,1.66,3,3,0,0,1-1.34.39,2,2,0,0,1-.71-.26,2,2,0,0,1-.57-1.28c0-.51.32-1,.32-1.6s-.32-.9-.39-1.48c0-.19.07-1.41.07-2.69s-.07-2.69-.13-3.46a13.16,13.16,0,0,1-.19-2.11,1.94,1.94,0,0,1,.19-1,2.55,2.55,0,0,0,.19-1.21c0-.64-.13-1.28-.51-1.28a3.67,3.67,0,0,0-1.67-.39c-1.09.06-2.5.19-2.62.19-.32,0-.45.26-1,.26a14.27,14.27,0,0,0-3.27.19c-.57.13-1.92.13-1.92,1a7.33,7.33,0,0,0-.38,2.11c0,.64.06,1,.06,1.35,0,.64-.38,1.15-.38,1.85,0,.52.12,1,.12,1.86a20.56,20.56,0,0,1-.19,2.89c-.06.38-.38,1.41-.83,1.6s-.26.7-.58,1.28-.64,1-1.15,1-1-.7-1.35-1.15a4.74,4.74,0,0,1-.7-2.43c-.07-.77-.13-1.8-.13-2.5,0-.51.19-.9.19-1.54,0-.45-.06-1-.06-1.28s-.07-1.73-.07-3.08a8.45,8.45,0,0,0,.2-1.21.77.77,0,0,0-.26-.65,1.88,1.88,0,0,1-.51-1.47,5.75,5.75,0,0,1,.38-1.86c.13-.38.07-2.11.13-3,0-2.56.19-5.06.19-7.75,0-.58,0-1.86.07-3a66.84,66.84,0,0,1,1.73-9.35,8.27,8.27,0,0,1,2.17-3.21c.39-.38,1-.76,1-1.34s1.92-1.8,2.75-2.24a11.14,11.14,0,0,1,2.19-1.22c.51-.07,1.53-.51,2.36-.64s2.5-.13,3.34-.2,3.07-.57,3.52-.57C125,234.08,125.46,235,125.46,235.94ZM118.54,237a12.83,12.83,0,0,0-3,.38,3.92,3.92,0,0,0-2.11,1.79,8.22,8.22,0,0,0-1.09,2.12c0,.45-.77,1.92-1.09,2.94a10.76,10.76,0,0,0-.32,2.82c0,1.22.06,1.73.06,2.31s-.64,2.37-.64,3.78v2.05c0,2.5.07,6.15.13,7,.13,1.22,0,3.21.19,3.78s.26.45.77.45h1.15c1.74,0,3.4-.19,5.58-.19a12.14,12.14,0,0,1,1.54.06c.7,0,.9-.64,1-1.22,0-.32.06-1.15.06-2s-.06-1.61-.06-1.93-.06-.64-.06-1.15a16.21,16.21,0,0,1,.12-1.92,21.6,21.6,0,0,0-.32-3.08c-.13-.89-.13-3.33-.25-5s.45-3.21.45-4.87c0-.77-.26-1.48-.26-2.44,0-.51.06-1.09.06-2.24s0-3-1-3.4A3.63,3.63,0,0,0,118.54,237Z"/><path class="cls-1" d="M139.44,234.91a2.72,2.72,0,0,1,1.22-.64c.52,0,1.16.38,1.67,1.41a28.47,28.47,0,0,1,2.31,5.51c.25,1.22,1.28,4.1,1.6,5.13s.38,1,.38,1.15a14.08,14.08,0,0,0,.32,3.2c.39,1.09.52.64,1,2a5.31,5.31,0,0,1,.39,1.73.73.73,0,0,1-.07.32c-.06.06.9,1,1,1.6s.64,2.18.77,3,.64,2.69,1.09,4.49,1.85,4.29,1.92,5.06a16,16,0,0,0,.7,2.88c.33,0,1.41-1.79,1.86-3.46s.9-3.2,1-4,1-1.86,1-2.95a17.24,17.24,0,0,1,.58-3.59c.32-1,.83-3.33,1.09-3.46s.51-2.37.83-2.37c.07,0,.13-.38.13-.77a1,1,0,0,0-.06-.45,11.35,11.35,0,0,1,.7-2.75,11.14,11.14,0,0,1,1.09-2.18,7.76,7.76,0,0,0,.51-2.44,8.08,8.08,0,0,1,.58-1.92,5.8,5.8,0,0,0,.83-2.24c0-.19.07-.38.07-.51a11,11,0,0,0-.2-1.28,1.07,1.07,0,0,1,.2-.52,7.66,7.66,0,0,1,2.3-2.24c.07,0,.13-.06.2-.06.7,0,1.47,1.22,1.85,2.62a13.48,13.48,0,0,1,.58,4.1,11.9,11.9,0,0,0,.45,3.66,17.23,17.23,0,0,1,.38,2.88,21.07,21.07,0,0,1,.39,3.84c0,2.12.32,4.43.32,6.22a9.3,9.3,0,0,1-.13,1.47,6.7,6.7,0,0,0-.13,1,8.76,8.76,0,0,0,.45,2c.13.83.51.77.51,2.31,0,.25-.06.63-.06,1a12.78,12.78,0,0,0-.07,1.6c0,1.35.13,2.31.13,4.17,0,1.21.32,1.6.32,2.88-.06,1.54-.06,2.24-.06,2.82v1.47c0,.77.51,1.73.51,2.37-.19.9-1.79,2.89-2.76,2.89-.25,0-.57-.2-1.08-.58-1.09-.83-1-1.54-1.22-2.69a11.42,11.42,0,0,1-.19-2.63c-.19-5.19-.71-6.72-.71-7.82v-2.43a25.51,25.51,0,0,0-.25-4.61,16.12,16.12,0,0,1-.26-3.21c0-1.08.06-2,.06-2.43,0-.7-.57-5.51-.57-6.6,0-.45.06-.9.06-1.35s-.06-.89-.06-1.4c-.07-1,0-2.63-.13-3s-1.09,3-1.67,4c-.7,1.28-1.21,1.35-1.28,2.37a5.89,5.89,0,0,1-.38,2.63c-.45.89-1,2.94-1.35,4s-.25,2.76-1,4.55-1.34,3.53-1.73,4.94-.64,3.26-1.15,4.55-.9,3-1.28,4a.74.74,0,0,0-.07.38c0,.58.58,1,.58,1.73v1.54a1.44,1.44,0,0,1-.77,1.41c-1.09.83-1.54,1.67-2.44,1.67s-1.79-.13-2.17-2.57a70.39,70.39,0,0,0-2.38-8.58c-.19-.39-1-2.37-1.21-3s-.32-1.86-.58-2.63-.38-1.67-.7-2.63a16.66,16.66,0,0,1-.9-3.65,11.56,11.56,0,0,1,.13-1.35.68.68,0,0,0-.32-.57c-.64-.58-.2-1.35-.71-2.31s-.7-3.2-1.09-4.16a21.47,21.47,0,0,1-.64-3.46,17.08,17.08,0,0,0-1.15-2.82c-.06-.13-.13-.2-.19-.2-.39,0-.71,2.25-1,3.66a24.12,24.12,0,0,0-.38,4.55v1.6a5.12,5.12,0,0,1-.13,1.34,14.43,14.43,0,0,0-.51,3.08c.06,1.22.19,2.05.19,2.69a17.78,17.78,0,0,1-.45,4.29,10.36,10.36,0,0,0-.44,2.5,4.17,4.17,0,0,0-.07.9v.7a5.81,5.81,0,0,1-.19,1.67c-.38,1.54-.7,3.65-.9,5.06s-.38,3-.51,4.61.13,1.48-.64,2.18a1.64,1.64,0,0,1-1.09.58c-.32,0-.58-.19-.64-.71a7.33,7.33,0,0,1-.13-1.34,14.23,14.23,0,0,1,.39-3.14,19.57,19.57,0,0,0,.32-3.59v-.83c0-.77.38-2.12.38-3.33a3.29,3.29,0,0,0-.06-.77,3.66,3.66,0,0,1-.07-.84,23.61,23.61,0,0,1,.45-2.5,24.19,24.19,0,0,0,.77-3.45,1.62,1.62,0,0,0-.07-.58,1.89,1.89,0,0,1-.06-.64c0-2.37,1.09-9.81,1.16-11.47.06-1.86.38-3,.38-4.17s.45-2.88.51-4.22a51.7,51.7,0,0,1,.64-5.83A3.62,3.62,0,0,1,139.44,234.91Z"/><path class="cls-1" d="M200.27,235.94c0,1.47.77,2.75.77,4.48,0,.77.07,1.28.07,1.79,0,.9-.39,1.8-.39,2.82s.13,3.59.13,5.77c0,1.35,0,2.63.07,3.21a23.75,23.75,0,0,1,.38,3.52,11.76,11.76,0,0,1-.19,1.66,15.16,15.16,0,0,0,.19,2.31c0,.13-.19,3.59-.19,5.58,0,1.34.06,3.39.06,5a13.94,13.94,0,0,1-.06,1.8,6.9,6.9,0,0,0-.13,1.6c0,.9.13,1.79.13,4.42a3.91,3.91,0,0,1-.07.9,8.41,8.41,0,0,1-.38,2,10.09,10.09,0,0,1-2,1.66,3,3,0,0,1-1.35.39,1.83,1.83,0,0,1-.7-.26,2,2,0,0,1-.58-1.28c0-.51.32-1,.32-1.6s-.32-.9-.38-1.48c0-.19.06-1.41.06-2.69s-.06-2.69-.13-3.46a13.16,13.16,0,0,1-.19-2.11,1.94,1.94,0,0,1,.19-1,2.52,2.52,0,0,0,.2-1.21c0-.64-.13-1.28-.52-1.28a3.62,3.62,0,0,0-1.66-.39c-1.09.06-2.5.19-2.63.19-.32,0-.45.26-1,.26a14.18,14.18,0,0,0-3.27.19c-.58.13-1.93.13-1.93,1a7.33,7.33,0,0,0-.38,2.11c0,.64.06,1,.06,1.35,0,.64-.38,1.15-.38,1.85,0,.52.13,1,.13,1.86a20.09,20.09,0,0,1-.2,2.89c-.06.38-.38,1.41-.83,1.6s-.25.7-.57,1.28-.65,1-1.16,1-1-.7-1.34-1.15a4.83,4.83,0,0,1-.71-2.43c-.06-.77-.13-1.8-.13-2.5,0-.51.2-.9.2-1.54,0-.45-.07-1-.07-1.28s-.06-1.73-.06-3.08a10,10,0,0,0,.19-1.21.74.74,0,0,0-.26-.65,1.88,1.88,0,0,1-.51-1.47,5.5,5.5,0,0,1,.39-1.86c.12-.38.06-2.11.12-3,0-2.56.2-5.06.2-7.75,0-.58,0-1.86.06-3a70,70,0,0,1,1.73-9.35,8.17,8.17,0,0,1,2.18-3.21c.38-.38,1-.76,1-1.34s1.93-1.8,2.76-2.24a10.84,10.84,0,0,1,2.18-1.22c.51-.07,1.54-.51,2.37-.64s2.5-.13,3.33-.2,3.08-.57,3.53-.57C199.82,234.08,200.27,235,200.27,235.94ZM193.35,237a12.74,12.74,0,0,0-2.94.38,4,4,0,0,0-2.12,1.79,8.55,8.55,0,0,0-1.09,2.12c0,.45-.77,1.92-1.09,2.94a11.2,11.2,0,0,0-.32,2.82c0,1.22.07,1.73.07,2.31s-.64,2.37-.64,3.78v2.05c0,2.5.06,6.15.12,7,.13,1.22,0,3.21.2,3.78s.25.45.76.45h1.16c1.73,0,3.39-.19,5.57-.19a12.14,12.14,0,0,1,1.54.06c.71,0,.9-.64,1-1.22,0-.32.07-1.15.07-2s-.07-1.61-.07-1.93-.06-.64-.06-1.15a14.12,14.12,0,0,1,.13-1.92,23.16,23.16,0,0,0-.32-3.08c-.13-.89-.13-3.33-.26-5s.45-3.21.45-4.87c0-.77-.26-1.48-.26-2.44,0-.51.07-1.09.07-2.24s0-3-1-3.4A3.78,3.78,0,0,0,193.35,237Z"/><path class="cls-1" d="M224.63,245.93c0-.25-.12-1.34-.12-2.5,0-.64.19-1.28.19-2.11s-.58-1.35-.77-2.31a3.91,3.91,0,0,0-1.6-2.5,2.5,2.5,0,0,0-.77-.13,7.91,7.91,0,0,0-2.76.58c-1,.45-2.24,2.18-2.82,3.14a2,2,0,0,0-.31,1.22c0,.83.25,1.79.25,2.88a3.75,3.75,0,0,0,.64,2.63c.39.58.26,2,.58,2.88s.58.77,2.05,1.73,2.5,2.24,4.55,4.17,3.71,3.2,4.68,5.44a19.55,19.55,0,0,1,1.28,6.34,22.66,22.66,0,0,1-.58,4.49c-.32,1.28-.77,2.31-1,3.08a8.7,8.7,0,0,1-1.54,2.94,7,7,0,0,1-2,1.93c-.89.76-3.58,2.18-4.73,2.94a3.18,3.18,0,0,1-1.86.45,17.82,17.82,0,0,1-2-.13,12.69,12.69,0,0,1-3.65-.89,7.73,7.73,0,0,1-2.69-2.89,16,16,0,0,1-.9-4.42c0-1.09-.45-3.39-.45-4.87a2.46,2.46,0,0,1,.07-.77,2.4,2.4,0,0,1,2.3-2c.77,0,2,.64,2,1.6,0,.71-.64,1.41-.9,2.24a6.55,6.55,0,0,0-.38,1.92,6.39,6.39,0,0,0,.19,1.41c.38,1.73.58,3,1.28,3.72a10.17,10.17,0,0,0,3.21,2.43,3.47,3.47,0,0,0,1.4.26,3.78,3.78,0,0,0,2.38-.77,5.78,5.78,0,0,0,2.11-2.62,2.23,2.23,0,0,1,.71-1.54,12.75,12.75,0,0,0,1-2.5,6,6,0,0,0,.26-2,20.78,20.78,0,0,0-.2-2.88,5.41,5.41,0,0,1-.06-.64c-.19-1.73-.83-2.43-1.47-3.91s-1.74-2-2.44-2.95l-2.31-2.82a35.37,35.37,0,0,0-3.33-3,10.66,10.66,0,0,1-2.37-2.56c-.25-.64-.25-1.47-.83-2a4.61,4.61,0,0,1-1.16-3.08,3.62,3.62,0,0,1,.07-.83c.38-2.24.64-4.36,1.67-5.64s1-1.86,1.73-2.88a5.19,5.19,0,0,1,2.3-2.31c1.54-1,3.08-1.79,4.17-1.79a14,14,0,0,1,4.16.83A7.71,7.71,0,0,1,227,237.6a6.27,6.27,0,0,1,.64,2.76,32.09,32.09,0,0,0,.32,3.2c-.07.64-.58,3.14-1.41,3.08S224.63,246.32,224.63,245.93Z"/></svg>