<svg id="Calque_1" data-name="Calque 1" xmlns="http://www.w3.org/2000/svg" viewBox="0 0 300 300"><defs><style>.cls-1{fill:#183a66;}.cls-2{fill:#fff;}.cls-3{fill:#f4f4f4;}</style></defs><path class="cls-1" d="M298.42,148.64A148.44,148.44,0,0,1,230,273.77c-1.16.76-2.32,1.47-3.49,2.19-.87.53-1.76,1.07-2.66,1.59s-1.83,1.05-2.77,1.54a148.53,148.53,0,0,1-70.56,18.21h-.76c-1.15,0-2.26,0-3.41,0a147.17,147.17,0,0,1-31.2-4c-2.55-.58-5.08-1.25-7.57-2,0,0,0,0,0,0a145.28,145.28,0,0,1-18-6.6q-5.19-2.28-10.15-5c-.92-.47-1.79-1-2.69-1.48s-1.79-1-2.66-1.54c-1.57-.92-3.09-1.88-4.61-2.84A148.65,148.65,0,1,1,298.42,148.64Z"/><path class="cls-2" d="M102.58,223.43s-7.22-14.86-9.88-49.84c-2.61-34.18-32.33-15.83-33.4,23.06-.87,31.58,29.06,41.19,29.06,41.19Z"/><path class="cls-2" d="M96.66,233.34a3,3,0,0,1-.42,0c-.27-.05-27-5.35-30-28.91-2.15-16.95,3-31.75,9.22-36.26a6.19,6.19,0,0,1,6.47-.9c3.75,1.78,5.94,7.58,6.49,17.24,1.39,24.17,10,38,10.14,38.09A2.24,2.24,0,0,1,94.77,225c-.38-.6-9.37-14.92-10.83-40.24-.5-8.8-2.44-12.76-3.94-13.47-.19-.09-.76-.36-1.94.49-4.41,3.19-9.44,16.12-7.41,32.08,2.58,20.37,26.18,25,26.42,25.08a2.23,2.23,0,0,1-.41,4.43Z"/><path class="cls-2" d="M196.5,223.43s7.22-14.86,9.89-49.84c2.6-34.18,32.33-15.83,33.4,23.06.87,31.58-29.07,41.19-29.07,41.19Z"/><path class="cls-2" d="M202.43,233.34a2.23,2.23,0,0,1-.41-4.43c1-.18,23.84-4.77,26.42-25.08,2-16-3-28.89-7.41-32.08-1.18-.85-1.75-.58-1.94-.49-1.51.71-3.44,4.67-4,13.47-1.45,25.32-10.45,39.64-10.83,40.24a2.23,2.23,0,0,1-3.76-2.41h0c.09-.13,8.75-14,10.13-38.09.56-9.66,2.74-15.46,6.49-17.24a6.2,6.2,0,0,1,6.48.9c6.22,4.51,11.37,19.31,9.22,36.26-3,23.56-29.76,28.86-30,28.91A2.85,2.85,0,0,1,202.43,233.34Z"/><path class="cls-2" d="M230,273.77c-1.16.76-2.32,1.47-3.49,2.19-.87.53-1.76,1.07-2.66,1.59s-1.83,1.05-2.77,1.54a148.53,148.53,0,0,1-70.56,18.21h-.76c-1.15,0-2.26,0-3.41,0a147.17,147.17,0,0,1-31.2-4c-2.55-.58-5.08-1.25-7.57-2,0,0,0,0,0,0a145.28,145.28,0,0,1-18-6.6q-5.19-2.28-10.15-5c-.92-.47-1.79-1-2.69-1.48s-1.79-1-2.66-1.54c-1.57-.92-3.09-1.88-4.61-2.84a105.07,105.07,0,0,1,2.62-12.49c.18-.65.36-1.3.56-1.92a85.18,85.18,0,0,1,8.23-19.09c.32-.58.67-1.14,1-1.7a2.29,2.29,0,0,1,.18-.29,2.07,2.07,0,0,1,.22-.35c.34-.56.7-1.08,1.06-1.62l.33-.47c.67-1,1.34-2,2.06-2.93.13-.15.25-.31.38-.47a.91.91,0,0,1,.2-.26,1.68,1.68,0,0,1,.27-.34c.36-.47.69-.92,1.07-1.36s.58-.72.9-1.08c.69-.83,1.41-1.65,2.17-2.46.87-1,1.79-1.92,2.73-2.84.15-.16.31-.31.49-.47.31-.31.63-.63,1-.92a1.94,1.94,0,0,1,.27-.24,1.48,1.48,0,0,1,.29-.27c.47-.45,1-.87,1.46-1.3a2.48,2.48,0,0,1,.44-.36v0c.38-.34.76-.65,1.14-1,.56-.47,1.14-.94,1.73-1.39.06-.07.15-.11.22-.18a2.17,2.17,0,0,0-.07-.24v-.05a11.06,11.06,0,0,1-.31-1.41,14.32,14.32,0,0,1-.29-2.64c0-.22,0-.45,0-.67a18.28,18.28,0,0,1,.73-5.19,19,19,0,0,1,29.67-9.64c3.33-6.56,10.85-11.12,19.58-11.12s16.21,4.56,19.55,11.12A18.93,18.93,0,0,1,199.74,213a8.87,8.87,0,0,1,0,1v.07c0,.11,0,.18,0,.29v0a.11.11,0,0,1,0,.07,16.39,16.39,0,0,1-.6,3.53q.67.51,1.32,1.08a1.55,1.55,0,0,1,.33.24,3,3,0,0,1,.32.27c.27.2.53.43.8.65s.58.51.87.78c.47.38.94.81,1.39,1.23s.81.72,1.19,1.1l.24.24a2.56,2.56,0,0,1,.29.27l.27.27c.5.47,1,.94,1.41,1.43s.83.85,1.21,1.3c1,1.05,2,2.17,2.91,3.31l.13.16c.61.74,1.19,1.45,1.77,2.24l.25.33,0,0,.2.27c.11.16.25.34.36.52.49.65.94,1.29,1.39,2,.35.51.67,1,1,1.52a17,17,0,0,1,1.05,1.65,1.21,1.21,0,0,1,.2.34.92.92,0,0,1,.18.29c.36.56.7,1.12,1,1.7a87.66,87.66,0,0,1,7.7,18.19c.2.62.38,1.27.56,1.92A101.36,101.36,0,0,1,230,273.77Z"/><path class="cls-3" d="M207.42,285.69a148.14,148.14,0,0,1-56.87,11.61h-.76c-1.15,0-2.26,0-3.41,0a147.17,147.17,0,0,1-31.2-4c-2.55-.58-5.08-1.25-7.57-2,0,0,0,0,0,0a145.28,145.28,0,0,1-18-6.6c.81-14.72,5.49-30.13,11.55-40a18.71,18.71,0,0,0,16.26,9.84,18,18,0,0,0,11.5-4.14,22,22,0,0,0,39.11,0,18.16,18.16,0,0,0,11.52,4.14,18.72,18.72,0,0,0,16.26-9.84C202,254.68,206.77,270.63,207.42,285.69Z"/><path class="cls-1" d="M156,286.4a2.39,2.39,0,0,1,1.33,3.57c-1.78,2.7-5.1,6.78-8.9,6.78s-7.12-4.08-8.9-6.78a2.39,2.39,0,0,1,1.34-3.57,20.46,20.46,0,0,1,15.13,0Z"/><path class="cls-1" d="M150.55,292.38v4.92h-.76c-1.15,0-2.26,0-3.41,0v-4.88a2.09,2.09,0,0,1,4.17,0Z"/><path class="cls-1" d="M115.89,293.12c-.24,0-.49.09-.71.11-2.55-.58-5.08-1.25-7.57-2,0,0,0,0,0,0-2.93-2.3-5-6.26-5.28-11.12-.6-8.72,4.5-17,11.41-18.54s13,4.32,13.58,13S122.8,291.6,115.89,293.12Z"/><ellipse class="cls-2" cx="111.1" cy="273.38" rx="5.56" ry="3.33" transform="translate(-178.23 331.38) rotate(-79.22)"/><ellipse class="cls-2" cx="119.93" cy="282.61" rx="2.78" ry="1.67" transform="translate(-175.54 365.98) rotate(-82.76)"/><ellipse class="cls-1" cx="181.02" cy="277.32" rx="12.44" ry="16.12" transform="translate(-43.46 33.83) rotate(-9.54)"/><ellipse class="cls-2" cx="184.73" cy="273.38" rx="3.33" ry="5.56" transform="translate(-47.88 39.38) rotate(-10.78)"/><ellipse class="cls-2" cx="175.9" cy="282.61" rx="1.67" ry="2.78" transform="translate(-34.2 24.41) rotate(-7.24)"/><circle class="cls-2" cx="149.78" cy="94.72" r="58.95"/><path class="cls-2" d="M164.53,151.8s7.42,6.94,2.05,19.07c0,0,18.15-11.11,19.53-29.73C187.18,126.71,164.53,151.8,164.53,151.8Z"/><path class="cls-1" d="M168.93,80.82a14.65,14.65,0,0,1-4.52,11.07L156,99.18q-4.53,5.07-4.52,13.75h-9.6q0-9.78,4.43-16.15,1.66-2.31,8.3-8.12,4.53-4,4.52-7.84,0-5.91-10.51-5.91-9.88,0-9.88,8.58h-9a16.12,16.12,0,0,1,5-12.27q5.09-4.78,13.94-4.8,8.48,0,13.93,3.23A12.23,12.23,0,0,1,168.93,80.82ZM152.79,132.3H141.44V120.68h11.35Z"/></svg>