<svg id="Calque_1" data-name="Calque 1" xmlns="http://www.w3.org/2000/svg" viewBox="0 0 300 300"><defs><style>.cls-1{fill:#183a66;}.cls-2{fill:#fff;}.cls-3{fill:#f4f4f4;}</style></defs><path class="cls-1" d="M298.87,149.82a148.45,148.45,0,0,1-68.39,125.12c-1.16.76-2.33,1.48-3.49,2.2-.87.53-1.77,1.07-2.66,1.58s-1.84,1.06-2.78,1.55a150,150,0,0,1-13.69,6.6A148.06,148.06,0,0,1,151,298.48h-.76c-1.14,0-2.26,0-3.4-.05a146.61,146.61,0,0,1-31.21-4c-2.55-.58-5.08-1.26-7.56-2a0,0,0,0,0,0,0,146.31,146.31,0,0,1-18-6.6q-5.2-2.28-10.16-5c-.91-.47-1.79-1-2.68-1.48s-1.79-1-2.66-1.55c-1.57-.91-3.09-1.87-4.61-2.84A148.65,148.65,0,1,1,298.87,149.82Z"/><path class="cls-2" d="M103,224.61s-7.22-14.86-9.89-49.84c-2.6-34.18-32.33-15.83-33.4,23.06C58.88,229.4,88.81,239,88.81,239Z"/><path class="cls-2" d="M97.1,234.52a3,3,0,0,1-.41,0c-.27,0-27-5.35-30-28.91-2.16-17,3-31.75,9.21-36.26a6.2,6.2,0,0,1,6.48-.9c3.75,1.78,5.93,7.58,6.49,17.24,1.38,24.16,10,37.95,10.13,38.09a2.23,2.23,0,0,1-3.76,2.41c-.38-.6-9.37-14.92-10.83-40.24-.51-8.8-2.44-12.76-4-13.47-.18-.09-.76-.37-1.94.49-4.4,3.19-9.43,16.12-7.41,32.08,2.59,20.37,26.18,25,26.42,25.08a2.23,2.23,0,0,1-.41,4.43Z"/><path class="cls-2" d="M197,224.61s7.22-14.86,9.88-49.84c2.61-34.18,32.33-15.83,33.4,23.06C241.1,229.4,211.17,239,211.17,239Z"/><path class="cls-2" d="M202.87,234.52a2.23,2.23,0,0,1-.41-4.43c1-.19,23.85-4.77,26.42-25.08,2-16-3-28.89-7.41-32.08-1.18-.85-1.75-.58-1.94-.49-1.5.71-3.44,4.67-3.94,13.47-1.46,25.32-10.45,39.64-10.83,40.24a2.24,2.24,0,0,1-3.77-2.41h0c.09-.13,8.76-14,10.14-38.09.56-9.66,2.74-15.46,6.49-17.24a6.19,6.19,0,0,1,6.47.9c6.22,4.51,11.37,19.3,9.22,36.26-3,23.56-29.75,28.86-30,28.91A3,3,0,0,1,202.87,234.52Z"/><path class="cls-2" d="M230.48,274.94c-1.16.76-2.33,1.48-3.49,2.2-.87.53-1.77,1.07-2.66,1.58s-1.84,1.06-2.78,1.55a150,150,0,0,1-13.69,6.6A148.06,148.06,0,0,1,151,298.48h-.76c-1.14,0-2.26,0-3.4-.05a146.61,146.61,0,0,1-31.21-4c-2.55-.58-5.08-1.26-7.56-2a0,0,0,0,0,0,0,146.31,146.31,0,0,1-18-6.6q-5.2-2.28-10.16-5c-.91-.47-1.79-1-2.68-1.48s-1.79-1-2.66-1.55c-1.57-.91-3.09-1.87-4.61-2.84a103.35,103.35,0,0,1,2.62-12.48c.17-.65.35-1.3.56-1.92a85,85,0,0,1,8.23-19.09c.31-.58.67-1.14,1-1.7a1.53,1.53,0,0,1,.18-.29,1.93,1.93,0,0,1,.22-.36c.34-.56.69-1.07,1-1.61l.34-.47c.67-1,1.34-2,2-2.93.14-.15.25-.31.39-.47a.94.94,0,0,1,.2-.27,1.31,1.31,0,0,1,.27-.33c.35-.47.69-.92,1.07-1.37s.58-.71.89-1.07c.7-.83,1.41-1.66,2.17-2.46.88-1,1.79-1.92,2.73-2.84.16-.16.32-.32.5-.47.31-.32.62-.63,1-.92a3.08,3.08,0,0,1,.27-.25,1.45,1.45,0,0,1,.29-.26c.47-.45,1-.88,1.45-1.3a2.16,2.16,0,0,1,.45-.36v0c.38-.34.76-.65,1.14-1,.56-.47,1.14-.94,1.72-1.39.07-.07.16-.11.23-.18a2.33,2.33,0,0,1-.07-.25v0a8.44,8.44,0,0,1-.31-1.41,15.24,15.24,0,0,1-.3-2.64c0-.22,0-.45,0-.67A18.24,18.24,0,0,1,101,209a19,19,0,0,1,29.67-9.64c3.33-6.56,10.85-11.12,19.57-11.12s16.22,4.56,19.55,11.12a18.94,18.94,0,0,1,30.41,14.83,7.18,7.18,0,0,1-.05,1v.07c0,.11,0,.17,0,.29v0a.11.11,0,0,1,0,.07,16.39,16.39,0,0,1-.61,3.53c.45.34.9.69,1.32,1.07a1.76,1.76,0,0,1,.34.25c.11.09.22.18.31.27.27.2.54.42.81.65s.58.51.87.78c.47.38.94.81,1.39,1.23s.8.72,1.18,1.1l.25.24a3.84,3.84,0,0,1,.29.27l.27.27c.49.47,1,.94,1.41,1.43s.83.85,1.21,1.3c1,1.05,2,2.17,2.9,3.31l.14.16c.6.74,1.18,1.45,1.77,2.23.09.12.15.23.24.34l0,0,.21.27c.11.16.24.34.35.52.5.64.94,1.29,1.39,2,.36.52.67,1,1,1.53a17,17,0,0,1,1.05,1.65,1.08,1.08,0,0,1,.2.34,1.15,1.15,0,0,1,.18.29c.36.56.69,1.12,1,1.7a87.64,87.64,0,0,1,7.69,18.19c.21.62.38,1.27.56,1.92A99.72,99.72,0,0,1,230.48,274.94Z"/><path class="cls-3" d="M207.86,286.87A148.06,148.06,0,0,1,151,298.48h-.76c-1.14,0-2.26,0-3.4-.05a146.61,146.61,0,0,1-31.21-4c-2.55-.58-5.08-1.26-7.56-2a0,0,0,0,0,0,0,146.31,146.31,0,0,1-18-6.6c.81-14.72,5.48-30.13,11.54-40a18.71,18.71,0,0,0,16.27,9.84,18.07,18.07,0,0,0,11.5-4.14,22,22,0,0,0,39.1,0A18.19,18.19,0,0,0,180,255.57a18.73,18.73,0,0,0,16.26-9.84C202.45,255.86,207.21,271.81,207.86,286.87Z"/><path class="cls-1" d="M156.48,287.58a2.38,2.38,0,0,1,1.34,3.57c-1.78,2.7-5.1,6.78-8.9,6.78s-7.12-4.08-8.9-6.78a2.39,2.39,0,0,1,1.33-3.57,20.46,20.46,0,0,1,15.13,0Z"/><path class="cls-1" d="M151,293.56v4.92h-.76c-1.14,0-2.26,0-3.4-.05v-4.87a2.08,2.08,0,0,1,4.16,0Z"/><path class="cls-1" d="M116.34,294.3l-.72.11c-2.55-.58-5.08-1.26-7.56-2a0,0,0,0,0,0,0c-2.93-2.3-5-6.26-5.28-11.12-.61-8.72,4.49-17,11.41-18.54s13,4.31,13.58,13S123.25,292.77,116.34,294.3Z"/><ellipse class="cls-2" cx="111.55" cy="274.55" rx="5.56" ry="3.33" transform="translate(-179.03 332.78) rotate(-79.22)"/><ellipse class="cls-2" cx="120.37" cy="283.79" rx="2.78" ry="1.67" transform="translate(-176.32 367.45) rotate(-82.76)"/><ellipse class="cls-1" cx="181.47" cy="278.5" rx="12.44" ry="16.12" transform="translate(-43.64 33.92) rotate(-9.54)"/><ellipse class="cls-2" cx="185.17" cy="274.55" rx="3.33" ry="5.56" transform="translate(-48.09 39.48) rotate(-10.78)"/><ellipse class="cls-2" cx="176.34" cy="283.79" rx="1.67" ry="2.78" transform="translate(-34.35 24.48) rotate(-7.24)"/><circle class="cls-2" cx="150.22" cy="95.9" r="58.95"/><path class="cls-2" d="M165,153s7.41,6.94,2.05,19.07c0,0,18.14-11.12,19.52-29.73C187.62,127.89,165,153,165,153Z"/><path class="cls-1" d="M169.38,82a14.68,14.68,0,0,1-4.52,11.07l-8.4,7.29q-4.52,5.07-4.52,13.74h-9.59q0-9.78,4.43-16.14,1.65-2.31,8.3-8.12,4.51-4,4.52-7.84,0-5.91-10.52-5.91-9.87,0-9.87,8.58h-9a16.12,16.12,0,0,1,5-12.27q5.07-4.8,13.93-4.8,8.49,0,13.93,3.23A12.22,12.22,0,0,1,169.38,82Zm-16.15,51.48H141.89V121.85h11.34Z"/></svg>