<svg id="Calque_1" data-name="Calque 1" xmlns="http://www.w3.org/2000/svg" viewBox="0 0 300 300"><defs><style>.cls-1{fill:#183a66;}.cls-2{fill:#fff;}.cls-3{fill:#f4f4f4;}.cls-4{fill:#53a533;}.cls-5{fill:#b4cd29;}.cls-6{fill:none;stroke:#53a533;stroke-miterlimit:10;}</style></defs><path class="cls-1" d="M299.72,149.82a150.65,150.65,0,0,1-2.5,27.38q-1,5.4-2.38,10.65c-.25,1-.51,1.92-.78,2.87-.23.79-.46,1.58-.7,2.37-.32,1.07-.65,2.13-1,3.19-.25.78-.51,1.56-.78,2.33-.2.6-.42,1.2-.63,1.8s-.36,1-.55,1.52l-.1.27-.09.24a149.84,149.84,0,0,1-45.29,63.16,146.14,146.14,0,0,1-13.62,10q-2,1.28-4,2.49c-.88.54-1.78,1.08-2.68,1.59l-.35.2c-.8.46-1.62.92-2.45,1.36a149.85,149.85,0,0,1-142.67.54c-.93-.47-1.81-1-2.7-1.49l-.73-.41c-.66-.36-1.32-.74-2-1.14A149.8,149.8,0,1,1,299.72,149.82Z"/><path class="cls-2" d="M164,131.37h-.14c.21,8.75-5.84,10.15-13.28,16a40.3,40.3,0,0,1-9.82,5.66,4.91,4.91,0,0,1,0,.53,4.7,4.7,0,0,1,0,.53,5.7,5.7,0,0,1-.14,1,3.66,3.66,0,0,1-.12.5c0,.16-.09.32-.15.49s-.12.32-.18.47L140,157a7,7,0,0,1-.53.87c-.1.14-.2.26-.31.39a6.88,6.88,0,0,1-2,1.64,24.7,24.7,0,0,1-2.37,1.16l-.15.05a22.57,22.57,0,0,1-4.23,1.26c-.39.08-.78.14-1.17.21l-1.19.13-.49,0c-.61-.79-1.23-1.56-1.88-2.32l-1.14-1.33-1.22-1.35c-1-1.1-2.06-2.17-3.14-3.22l-1.4-1.34c-.52-.5-1-1-1.58-1.48l-1.2-1.09-1.38-1.24-1.31-1.16-.93-.82L110,145.36c-3-2.65-6-5.32-8.8-8.1-5.88-5.85-10.75-12.24-12.86-20.2-2.2-8.35-.11-17.18,4.64-24.37h0c-.13-.17-.24-.34-.35-.51l0,0a.31.31,0,0,1,.08-.13.51.51,0,0,1,.11-.16c.14-.24.28-.45.43-.68s.24-.36.37-.53q.43-.63.87-1.23c.37-.48.76-1,1.15-1.42.08-.08.14-.16.21-.24s.27-.31.4-.46a1.36,1.36,0,0,1,.12-.12.81.81,0,0,1,.12-.14c.2-.23.4-.44.61-.66a1.09,1.09,0,0,1,.19-.18c.15-.17.31-.33.49-.5s.48-.48.73-.71a.34.34,0,0,1,.09-.08.54.54,0,0,1,0-.1,4.11,4.11,0,0,1-.21-.68,7.13,7.13,0,0,1-.18-.8c0-.14,0-.27-.07-.41a1.63,1.63,0,0,1,0-.31,8.28,8.28,0,0,1,.13-2.44,8.64,8.64,0,0,1,12.67-5.91,4.14,4.14,0,0,1,.5.3,9.91,9.91,0,0,1,8.34-5.9l.17,0A10,10,0,0,1,129.32,73a8.52,8.52,0,0,1,5.11-2.24,8.68,8.68,0,0,1,9.39,7.91,1.94,1.94,0,0,1,0,.48v.16a8.1,8.1,0,0,1-.15,1.72,6.75,6.75,0,0,1,.65.44.54.54,0,0,1,.16.1l.17.1c.13.09.25.19.38.27l.43.34a7.79,7.79,0,0,1,.69.52c.2.14.38.29.57.45l.14.11a.81.81,0,0,1,.14.12l.13.1c.24.2.48.4.71.61l.61.55c.49.46,1,.93,1.45,1.43l.07.06c.3.32.61.63.9,1l.13.15v0a.52.52,0,0,1,.1.11c0,.07.13.14.19.22.25.29.49.57.72.86l.51.67c.19.23.38.47.55.72a.53.53,0,0,1,.1.14.31.31,0,0,1,.09.13c.2.25.37.5.54.76A39.07,39.07,0,0,1,157,96.59s0,0,0,0c.38.79.73,1.61,1.06,2.45.12.28.23.57.33.88.39,1,.73,2.09,1.06,3.2.53,1.8,1.29,8.36,1.66,10.4.81,4.3,1.19,12.2,3.18,17.22,0,.05-1.24.16-1.24.21C163.12,131.46,164,130.88,164,131.37Z"/><path class="cls-3" d="M104.28,93,96.2,99.9c-1.28-1.66-2.51-3.31-3.66-5h0c-.12-.16-.22-.32-.32-.47l-.44-.66A75.12,75.12,0,0,1,79.31,63.4c-1.08,1.57-3.14,3.81-5.54,3.8-3.85,0-6.34-3.27-6.91-6.08-1-4.84,3.45-9.17,7.75-9.19,3.06,0,6.72,3.64,7.76,7.25a71.19,71.19,0,0,0,15,27s0,0,0,.05c.45.52.93,1,1.41,1.55C100.5,89.59,102.32,91.32,104.28,93Z"/><path class="cls-3" d="M274.88,232.44a150.18,150.18,0,0,1-30,33.16,146.14,146.14,0,0,1-13.62,10,20.92,20.92,0,0,0-6.78-.7c-6.94.54-13.5,5.55-20.27,3.93-5.25-1.25-8.7-6.07-12.69-9.7-5.66-5.16-12.88-8.2-19.18-12.54a55.45,55.45,0,0,1-18.5-21.62c-5-10.5-6.58-22.16-8.28-33.77v0c-.27-1.84-.54-3.67-.84-5.49a109.73,109.73,0,0,0-4.46-19.05s0,0,0,0a62.94,62.94,0,0,0-2.39-5.85,101.88,101.88,0,0,0-7.37-12.61c-8.86-13.38-19.18-26.3-16.2-41.4,40.18,23.81,53.75,78.85,94.39,101.86C228.69,229.85,251.61,231.48,274.88,232.44Z"/><path class="cls-2" d="M294.84,187.85c-.25,1-.51,1.92-.78,2.87-.23.79-.46,1.58-.7,2.37-.32,1.07-.65,2.13-1,3.19-.25.78-.51,1.56-.78,2.33-.2.6-.42,1.2-.63,1.8s-.36,1-.55,1.52l-.1.27-.09.24a149.84,149.84,0,0,1-45.29,63.16c-33.11-1.36-65.86-12.82-85.21-38.93-5.48-7.39-9.64-15.63-13.46-24.07l-.65-1.44v0c-.24-.55-.49-1.1-.74-1.66-.65-1.47-1.3-3-1.95-4.44-.26-.61-.52-1.22-.79-1.82-.45-1.05-.9-2.09-1.37-3.13-.91-2.09-1.83-4.17-2.78-6.23-.46-1-.94-2.06-1.43-3.08s-.94-2-1.43-2.95c-1.52-3.07-3.12-6.08-4.86-9-.28-.48-.57-1-.87-1.43q-1.76-2.86-3.72-5.58l-.7-1-.3-.39c-.13-.18-.27-.35-.41-.53h0c-.56-.73-1.13-1.44-1.72-2.15l-.52-.61-.27-.33-.26-.29c-.36-.42-.74-.84-1.12-1.26-.93-1-1.89-2-2.88-3l-1.28-1.25c-.48-.46-1-.92-1.45-1.37l-1.1-1-1.27-1.15-1.2-1.08-.85-.76-2.17-1.91c-2.34-2.08-4.67-4.16-6.87-6.33-.4-.38-.8-.78-1.2-1.18-5.39-5.43-9.86-11.36-11.79-18.74-2-7.75-.1-15.94,4.25-22.61h0a33.17,33.17,0,0,1,6.26-7.1h0l.09-.07a29,29,0,0,1,10.82-5.87,25.64,25.64,0,0,1,9.6-.85c6.94.64,13.27,3.66,18.8,8.08.84.65,1.65,1.34,2.44,2.06a67.86,67.86,0,0,1,13.78,18c.15.27.29.54.43.82q1.22,2.3,2.34,4.64s0,0,0,0h0c6.27,13,10.89,27,19.72,38.43,13.26,17.17,34.26,26.21,55.82,30.39l2,.36.24,0h0l.7.12c2.14.37,4.29.7,6.43,1l.4.05.72.09.39,0,.42.05c1.05.13,2.11.24,3.16.35,12.57,1.31,25.23,1.52,37.88,1.92.28,0,.56,0,.84,0h0c1.39,0,2.77.08,4.16.14h0C291.62,187.71,293.23,187.78,294.84,187.85Z"/><path class="cls-3" d="M294.84,187.85c-.25,1-.51,1.92-.78,2.87-.23.79-.46,1.58-.7,2.37-.32,1.07-.65,2.13-1,3.19-.25.78-.51,1.56-.78,2.33-.2.6-.42,1.2-.63,1.8s-.36,1-.55,1.52l-.1.27-.09.24a61.42,61.42,0,0,0-15.74-7.12c-7.8-2.22-16.07-2.67-23.72-5.35-3.2-1.12-9.73-3.05-13.35-5h0l-.27-.15h0a10.8,10.8,0,0,1-.93-.58c.79.1,3.75.48,5.84.73l.4.05.72.09.39,0,.42.05c1.05.13,2.11.24,3.16.35,12.57,1.31,25.23,1.52,37.88,1.92.28,0,.56,0,.84,0h0c1.39,0,2.77.08,4.16.14h0C291.62,187.71,293.23,187.78,294.84,187.85Z"/><path class="cls-3" d="M100.28,40c-1.09-6.29,3.6-9.48,6.63-9.71,4.28-.32,7.92,3.09,7.83,9.23-.07,18.65.58,38.1,10.26,53.92l-12.16-.94c-5.72-14.65-6.12-32.7-2.13-47.91a4.85,4.85,0,0,1-2.9.89A6.89,6.89,0,0,1,100.28,40Z"/><path class="cls-2" d="M70.52,54.89a3.75,3.75,0,0,1,4.62,1,6.61,6.61,0,0,1,1.46,5.8c-.44,1.82-1.24,3.73-3.42,4.06a5.29,5.29,0,0,1-1.47-.22c-3.37-1.07-3.74-4-3.52-6.35C68.37,57.29,68.89,55.77,70.52,54.89Z"/><path class="cls-2" d="M102.88,33.31a3.51,3.51,0,0,1,4.76-.59,6.91,6.91,0,0,1,.33,10.9,3.39,3.39,0,0,1-4.06.2A6.51,6.51,0,0,1,101,40,7.85,7.85,0,0,1,102.88,33.31Z"/><path class="cls-1" d="M67.91,60.43c.22,3,1.92,5.33,3.78,5.19s3.19-2.69,3-5.7-1.92-5.34-3.78-5.19S67.68,57.42,67.91,60.43Z"/><path class="cls-1" d="M100.77,38.65c.24,3.28,2.1,5.83,4.13,5.67s3.49-2.94,3.24-6.23S106,32.26,104,32.41,100.52,35.36,100.77,38.65Z"/><path class="cls-3" d="M172.34,228.88c5.5,4.32,11.66,5.65,13.75,3s-.67-8.32-6.17-12.64-11.66-5.65-13.75-3S166.84,224.57,172.34,228.88Z"/><path class="cls-3" d="M155.48,210.46c1.14,1.85,2.79,2.9,3.69,2.35s.7-2.5-.44-4.35-2.79-2.9-3.69-2.35S154.34,208.61,155.48,210.46Z"/><path class="cls-3" d="M187.65,244.62c1.83.88,3.67.88,4.1,0s-.72-2.33-2.55-3.21-3.67-.87-4.1,0S185.82,243.74,187.65,244.62Z"/><path class="cls-3" d="M203.18,245.46c4.75,1.83,9.32,1.44,10.21-.86s-2.25-5.66-7-7.48-9.32-1.45-10.21.86S198.43,243.63,203.18,245.46Z"/><path class="cls-3" d="M217.59,257c3,.84,5.82.33,6.23-1.14s-1.72-3.35-4.75-4.19-5.83-.33-6.24,1.14S214.56,256.12,217.59,257Z"/><path class="cls-3" d="M242.87,260.78c4.25.66,7.95-.47,8.27-2.52s-2.86-4.27-7.1-4.93-7.94.46-8.26,2.52S238.63,260.11,242.87,260.78Z"/><path class="cls-3" d="M228.91,250.47c1.89.32,3.55-.17,3.7-1.08s-1.25-1.92-3.14-2.24-3.55.17-3.7,1.08S227,250.15,228.91,250.47Z"/><path class="cls-3" d="M146.25,202.6l-.65-1.44v0h0c-.25-.54-.49-1.08-.74-1.63-.65-1.47-1.3-3-1.95-4.44-.26-.61-.52-1.22-.79-1.82-.45-1.05-.91-2.09-1.37-3.13-.91-2.09-1.83-4.17-2.78-6.23-.47-1-1-2.06-1.43-3.08s-.95-2-1.43-2.95c-1.52-3.07-3.12-6.08-4.86-9-.28-.48-.57-1-.87-1.43q-1.76-2.86-3.72-5.58l-1-1.35c-.13-.18-.27-.35-.41-.53h0c-.56-.73-1.13-1.44-1.72-2.15l-.52-.61c-.18-.21-.35-.42-.53-.62-.36-.42-.74-.84-1.12-1.26-.93-1-1.89-2-2.88-3l-1.28-1.25c-.48-.46-1-.92-1.45-1.37l-1.1-1-1.27-1.15-1.2-1.08-.85-.76-2.17-1.91c-2.34-2.08-4.67-4.16-6.87-6.33-.4-.38-.8-.78-1.2-1.18l2,1.39,23.66,16.79c1.64,1.16,3.28,2.33,4.81,3.61h0v0l.35.29a24.57,24.57,0,0,1,3.37,3.47c3.29,4.19,4.74,9.5,6,14.67l0,.08q2.36,9.47,4.45,19a.13.13,0,0,1,0,.06Q145.51,199.12,146.25,202.6Z"/><ellipse class="cls-1" cx="104.47" cy="38.22" rx="3.65" ry="5.9" transform="translate(-2.9 9.14) rotate(-4.94)"/><ellipse class="cls-2" cx="105.55" cy="36.77" rx="0.98" ry="2.03" transform="translate(-3.75 13.41) rotate(-7.14)"/><ellipse class="cls-2" cx="102.97" cy="40.16" rx="0.49" ry="1.02" transform="translate(-2.99 8.74) rotate(-4.79)"/><ellipse class="cls-1" cx="71.55" cy="60.37" rx="3.65" ry="5.9" transform="matrix(1, -0.09, 0.09, 1, -4.93, 6.38)"/><ellipse class="cls-2" cx="72.63" cy="58.92" rx="0.98" ry="2.03" transform="translate(-6.76 9.49) rotate(-7.14)"/><ellipse class="cls-2" cx="70.05" cy="62.31" rx="0.49" ry="1.02" transform="translate(-4.96 6.07) rotate(-4.79)"/><path class="cls-3" d="M139.27,126.94A27.59,27.59,0,0,1,134,132.5a29.27,29.27,0,0,1-15.79,6c-1.71.16-3.22.19-4.43.19A45.66,45.66,0,0,1,102,137.66q-.37-.09-.75-.21c-.4-.38-.8-.78-1.2-1.18-5.39-5.43-9.86-11.36-11.79-18.74-2-7.75-.1-15.94,4.25-22.61h0c-.12-.16-.22-.32-.32-.47l-.44-.66a63.4,63.4,0,0,0,5.61-7.52c.1-.16.18-.31.27-.47a10.5,10.5,0,0,0,1.24,1.94,8.7,8.7,0,0,0,6.83,3.51,8.41,8.41,0,0,0,5.7-2.29c.22.51.4.9.55,1.2,1.06,2,1.2-.21,5-.21,4.32,0,4,3.08,5.68-.81,1.58,1.44,4.43,3.4,6.58,3.4,2.94,0,6.85-1.07,8.92-3.44a5.83,5.83,0,0,0,.88-1.28,30.48,30.48,0,0,1,1.56,3.34C144.74,101.78,145.32,118.55,139.27,126.94Z"/><path class="cls-4" d="M297.22,177.2q-1,5.4-2.38,10.65c-.25,1-.51,1.92-.78,2.87-.23.79-.46,1.58-.7,2.37-.32,1.07-.65,2.13-1,3.19-.25.78-.51,1.56-.78,2.33-.2.6-.42,1.2-.63,1.8s-.36,1-.55,1.52l-.1.27a56.21,56.21,0,0,0-5.92-4.75c-10.66-7.29-24.25-9.8-37.35-11.32-1.88-.22-3.76-.42-5.61-.6l-.15,0-.45,0a34,34,0,0,1-3.42-.48h0a9.43,9.43,0,0,1-2-.6l-.14-.08a2.26,2.26,0,0,1-.64-.47,2,2,0,0,1-.54-.89.21.21,0,0,1,0-.12c-.4-1.38.24-3.27.6-5.09q.07-.31.12-.63c1.93-11.93,13.56-21.5,25.64-21.08.47,0,.93,0,1.39.09s.85.08,1.28.15a5.13,5.13,0,0,1,.65.1c.34,0,.68.11,1,.18s.67.13,1,.22l1,.26,1,.29,1,.32c.49.17,1,.34,1.46.53l.31.13c.48.18.95.38,1.42.59s1.05.47,1.57.73,1,.47,1.43.72l.11.06c.51.27,1,.54,1.51.83l1.15.67.87.52.07.05c.38.23.77.47,1.15.72l1.17.76c.15.09.29.19.43.29A106.28,106.28,0,0,1,297.22,177.2Z"/><path class="cls-4" d="M260.41,156c7.44.26,14.37,3.8,20.58,7.91.15.09.29.2.43.29,2.16,3,4.09,6.28,5.92,9.45L291.59,196c-3.62-5.62-7.31-11.31-12.3-15.75s-11.55-7.55-18.2-7-13.11,5.57-14,12.2a6.12,6.12,0,0,0-.1.66c-1.87-.19-4.5-.38-6.33-.71-2.79-.51-4.34-.48-5.61-1.37-2.38-1.67-.78-4.08-.32-7C236.7,165.17,248.33,155.61,260.41,156Z"/><path class="cls-5" d="M299.72,149.82a150.65,150.65,0,0,1-2.5,27.38q-1,5.4-2.38,10.65c-.25,1-.51,1.92-.78,2.87-.23.79-.46,1.58-.7,2.37-.32,1.07-.65,2.13-1,3.19-.25.78-.51,1.56-.78,2.33-2.2-3.7-4.31-7.47-6.59-11.12-1-1.59-2-3.17-3.1-4.71h0c-.4-.59-.83-1.17-1.26-1.75-4.44-6-10.24-11.36-17-14.14a25.52,25.52,0,0,0-7.78-1.92c-10-.82-20.26,9-20.26,19v.36l-.31-.06-2.66-.49c0-.11,0-.23,0-.34,3.64-36.11,13.62-71.51,38.52-97.93a122.66,122.66,0,0,1,9.44-9,149.13,149.13,0,0,1,19.1,73.24Z"/><path class="cls-6" d="M293.89,108.31c-15.8,16.37-23.62,30.05-28.15,48.45-.8,3.21-1.49,6.57-2.11,10.12,0,.12-.05.25-.07.38"/><path class="cls-1" d="M101.27,111.22a1.07,1.07,0,0,1,.52,1.53c-.7,1.17-2,2.92-3.47,2.92s-2.76-1.75-3.46-2.92a1.07,1.07,0,0,1,.52-1.53,7.3,7.3,0,0,1,5.89,0Z"/><path class="cls-1" d="M90.82,116.33A11.7,11.7,0,0,0,92.34,119a3.77,3.77,0,0,0,1,.82,2.29,2.29,0,0,0,1.2.31,2.52,2.52,0,0,0,1.2-.34,3.47,3.47,0,0,0,1-.8,5.47,5.47,0,0,0,.72-1.13c.23-.43.46-.91.81-1.48h0a.15.15,0,0,1,.22,0l0,.06a3.15,3.15,0,0,1,.34,2,4.26,4.26,0,0,1-.81,1.92,4.06,4.06,0,0,1-1.59,1.27,4.51,4.51,0,0,1-1.9.38,4.75,4.75,0,0,1-1.88-.41A3.78,3.78,0,0,1,91,120.22a4,4,0,0,1-.77-1.93,3.63,3.63,0,0,1,.29-2,.14.14,0,0,1,.2-.08.23.23,0,0,1,.07.07Z"/><path class="cls-1" d="M98.46,116.33A11.69,11.69,0,0,0,100,119a3.72,3.72,0,0,0,1,.82,2.32,2.32,0,0,0,1.21.31,2.48,2.48,0,0,0,1.19-.34,3.47,3.47,0,0,0,1-.8,5.47,5.47,0,0,0,.72-1.13c.23-.43.46-.91.81-1.48h0a.15.15,0,0,1,.22,0l0,.06a3.15,3.15,0,0,1,.34,2,4.26,4.26,0,0,1-.81,1.92A4.06,4.06,0,0,1,104,121.5a4.47,4.47,0,0,1-1.89.38,4.8,4.8,0,0,1-1.89-.41,3.91,3.91,0,0,1-1.59-1.25,4,4,0,0,1-.77-1.93,3.63,3.63,0,0,1,.29-2,.14.14,0,0,1,.2-.08.23.23,0,0,1,.07.07Z"/><path class="cls-1" d="M98.32,118.07a.85.85,0,0,1-.8-.89v-3.39a.81.81,0,1,1,1.61,0v3.39A.85.85,0,0,1,98.32,118.07Z"/></svg>