<svg id="Calque_1" data-name="Calque 1" xmlns="http://www.w3.org/2000/svg" viewBox="0 0 300 300"><defs><style>.cls-1{fill:#183a66;}.cls-2{fill:#fff;}.cls-3{fill:#f4f4f4;}</style></defs><path class="cls-1" d="M300.45,150.61a149.45,149.45,0,0,1-72.32,128.1c-.88.54-1.78,1.08-2.68,1.6s-1.85,1.05-2.79,1.55a149.7,149.7,0,0,1-142.52.54c-.93-.47-1.81-1-2.71-1.49s-1.8-1-2.67-1.55A149.56,149.56,0,1,1,300.45,150.61Z"/><path class="cls-2" d="M103.41,116.89s-7.27-14.94-10-50.14C90.84,32.36,60.93,50.82,59.86,90,59,121.72,89.1,131.39,89.1,131.39Z"/><path class="cls-2" d="M97.45,126.86a2,2,0,0,1-.42,0c-.27,0-27.2-5.37-30.21-29.08-2.16-17.06,3-31.94,9.28-36.48a6.24,6.24,0,0,1,6.51-.91c3.77,1.79,6,7.63,6.53,17.35C90.54,102,99.25,115.88,99.34,116a2.25,2.25,0,0,1-3.79,2.42c-.38-.6-9.43-15-10.9-40.48-.5-8.85-2.45-12.84-4-13.55-.18-.09-.76-.37-2,.49-4.43,3.21-9.49,16.22-7.45,32.28,2.6,20.49,26.34,25.18,26.58,25.23a2.24,2.24,0,0,1-.41,4.45Z"/><path class="cls-2" d="M197.9,116.89s7.27-14.94,9.95-50.14c2.61-34.39,32.52-15.93,33.6,23.2.87,31.77-29.24,41.44-29.24,41.44Z"/><path class="cls-2" d="M203.86,126.86a2.24,2.24,0,0,1-.41-4.45c1-.19,24-4.8,26.58-25.23,2-16.06-3-29.07-7.46-32.28-1.18-.86-1.76-.58-1.95-.49-1.51.71-3.46,4.7-4,13.55-1.46,25.47-10.51,39.88-10.89,40.48A2.25,2.25,0,0,1,202,116h0c.09-.13,8.81-14.11,10.2-38.32.56-9.72,2.75-15.56,6.53-17.35a6.24,6.24,0,0,1,6.51.91c6.26,4.54,11.44,19.42,9.27,36.48-3,23.71-29.93,29-30.2,29.08A2,2,0,0,1,203.86,126.86Z"/><path class="cls-2" d="M225,280.31c-.93.51-1.85,1.05-2.79,1.55a149.72,149.72,0,0,1-142.53.54c-.92-.47-1.8-1-2.7-1.49C69.2,236,64.2,185.52,72.76,155c.18-.65.36-1.31.56-1.94a85.71,85.71,0,0,1,8.28-19.2c.32-.58.68-1.14,1-1.71a1.53,1.53,0,0,1,.18-.29,2.16,2.16,0,0,1,.22-.36c.34-.56.7-1.08,1.06-1.62.79-1.17,1.58-2.32,2.41-3.42.13-.16.25-.32.38-.47a1.17,1.17,0,0,1,.2-.27,1.68,1.68,0,0,1,.27-.34c.63-.83,1.29-1.64,2-2.45a69.14,69.14,0,0,1,4.92-5.34c.48-.47,1-.94,1.47-1.39a3.08,3.08,0,0,1,.27-.25,1.86,1.86,0,0,1,.29-.27c.47-.45,1-.88,1.46-1.31s1.06-.92,1.6-1.35,1.15-.94,1.73-1.39c.07-.07.16-.12.23-.18a14.52,14.52,0,0,1-.38-1.71,15.58,15.58,0,0,1-.3-2.66c0-.23,0-.45,0-.68a18.5,18.5,0,0,1,.74-5.22,19.11,19.11,0,0,1,29.85-9.7c3.35-6.59,10.92-11.19,19.7-11.19s16.31,4.6,19.67,11.19a19.05,19.05,0,0,1,30.59,14.92,7.25,7.25,0,0,1,0,1v.07a17.54,17.54,0,0,1-.65,3.94,16.54,16.54,0,0,1,1.33,1.08,1.55,1.55,0,0,1,.33.24,3,3,0,0,1,.32.27c.58.45,1.15.93,1.69,1.44s.94.82,1.39,1.24,1,.88,1.44,1.35a2.7,2.7,0,0,1,.3.27l.27.27c.49.48,1,1,1.41,1.44q2.16,2.2,4.15,4.64c.65.79,1.28,1.58,1.91,2.41.09.11.16.22.25.34l0,0,.2.27c.11.16.25.34.36.52.86,1.14,1.64,2.32,2.41,3.51.38.54.74,1.1,1.06,1.66a1.37,1.37,0,0,1,.2.34.92.92,0,0,1,.18.29c.36.57.7,1.13,1,1.71a88.94,88.94,0,0,1,7.74,18.3c.2.63.38,1.29.56,1.94C237.54,185.39,232.61,235.51,225,280.31Z"/><path class="cls-3" d="M201.27,210.67c-16.39,20.41-40.54,21.42-51.69,21.42s-35.31-1-51.69-21.42c-13.65-17-7.15-54.19,4.07-72.54a18.81,18.81,0,0,0,16.37,9.92,18.19,18.19,0,0,0,11.57-4.17,22.12,22.12,0,0,0,39.35,0,18.22,18.22,0,0,0,11.58,4.17,18.81,18.81,0,0,0,16.37-9.92C208.42,156.48,214.91,193.67,201.27,210.67Z"/><path class="cls-1" d="M157.19,180.25a2.4,2.4,0,0,1,1.34,3.59c-1.79,2.72-5.13,6.82-8.95,6.82s-7.17-4.1-9-6.82a2.4,2.4,0,0,1,1.35-3.59,20.56,20.56,0,0,1,15.22,0Z"/><path class="cls-1" d="M149.58,198.49a2.31,2.31,0,0,1-2.1-2.47v-9.37a2.12,2.12,0,1,1,4.19,0V196A2.3,2.3,0,0,1,149.58,198.49Z"/><ellipse class="cls-1" cx="119.03" cy="177.06" rx="10.41" ry="9.42" transform="translate(-93.68 193.66) rotate(-60.55)"/><ellipse class="cls-2" cx="116.18" cy="174.56" rx="3.57" ry="2.54" transform="translate(-84.97 233.77) rotate(-72.76)"/><ellipse class="cls-2" cx="122.98" cy="180.42" rx="1.78" ry="1.28" transform="translate(-78.71 264.07) rotate(-78.25)"/><ellipse class="cls-1" cx="183.25" cy="174.43" rx="11.49" ry="13.01" transform="translate(-51.49 80.08) rotate(-21.69)"/><ellipse class="cls-2" cx="186.7" cy="171.27" rx="3.09" ry="4.48" transform="translate(-38.96 56.07) rotate(-15.49)"/><ellipse class="cls-2" cx="178.47" cy="178.65" rx="1.55" ry="2.23" transform="translate(-29.56 35.5) rotate(-10.49)"/><rect class="cls-1" x="131.55" y="197.13" width="36.05" height="2.72" rx="0.6"/><path class="cls-1" d="M189.39,157a19.61,19.61,0,0,0-5.22-1.93,12.35,12.35,0,0,0-2.91-.16,12.92,12.92,0,0,0-3.34.72,14,14,0,0,0-3,1.54,12.26,12.26,0,0,0-2.19,1.9,9.59,9.59,0,0,0-1.42,2.12c-.43.77-.82,1.59-1.5,2.64h0a.74.74,0,0,1-.57.27.58.58,0,0,1-.14,0,2.48,2.48,0,0,1-1.78-2.21,5.19,5.19,0,0,1,1.3-3.2,13.77,13.77,0,0,1,3.67-3.08,25.5,25.5,0,0,1,4.88-2.25,27.6,27.6,0,0,1,5.2-1.22,13.54,13.54,0,0,1,4.79.11A4.65,4.65,0,0,1,190,154a2.77,2.77,0,0,1,.1,2.77.69.69,0,0,1-.51.29.53.53,0,0,1-.2,0Z"/><path class="cls-1" d="M126.35,164.35a16.14,16.14,0,0,0-3.43-3.19,9.63,9.63,0,0,0-2.14-1,9.08,9.08,0,0,0-2.7-.38,9.59,9.59,0,0,0-2.69.41,9,9,0,0,0-2.15,1,8.27,8.27,0,0,0-1.62,1.38c-.52.52-1,1.1-1.82,1.8h0a.54.54,0,0,1-.5,0,.24.24,0,0,1-.1-.06,2.4,2.4,0,0,1-.76-2.41,4.46,4.46,0,0,1,1.82-2.33,10.26,10.26,0,0,1,3.56-1.54,17.72,17.72,0,0,1,4.26-.46,19.19,19.19,0,0,1,4.23.5,9.9,9.9,0,0,1,3.57,1.51A4.11,4.11,0,0,1,127.6,162a2.71,2.71,0,0,1-.65,2.39.48.48,0,0,1-.46.09.28.28,0,0,1-.14-.09Z"/><path class="cls-1" d="M126.81,160.41s2.71,3.68,4.74,4.05c0,0-2.88,2.27-5.2-.11"/></svg>