<svg id="Calque_1" data-name="Calque 1" xmlns="http://www.w3.org/2000/svg" viewBox="0 0 300 300"><defs><style>.cls-1{fill:#183a66;}.cls-2{fill:#fff;}.cls-3{fill:#f4f4f4;}</style></defs><path class="cls-1" d="M300,149.43a149.45,149.45,0,0,1-72.32,128.1c-.88.54-1.78,1.08-2.68,1.6s-1.84,1.06-2.79,1.55a149.7,149.7,0,0,1-142.52.54c-.92-.47-1.8-1-2.7-1.49s-1.8-1-2.68-1.55A149.56,149.56,0,1,1,300,149.43Z"/><path class="cls-2" d="M103,115.72s-7.26-15-9.94-50.15C90.4,31.19,60.49,49.65,59.41,88.77c-.87,31.77,29.24,41.44,29.24,41.44Z"/><path class="cls-2" d="M97,125.68a3,3,0,0,1-.42,0c-.27-.06-27.2-5.38-30.2-29.09-2.17-17.06,3-31.94,9.27-36.48a6.24,6.24,0,0,1,6.51-.91c3.78,1.79,6,7.63,6.53,17.35,1.4,24.31,10.11,38.19,10.2,38.32a2.24,2.24,0,0,1-3.78,2.42c-.39-.6-9.44-15-10.9-40.48-.51-8.85-2.46-12.83-4-13.55-.19-.09-.77-.37-1.95.49C73.85,66.93,68.8,79.94,70.83,96c2.6,20.49,26.34,25.19,26.58,25.23a2.24,2.24,0,0,1-.41,4.45Z"/><path class="cls-2" d="M197.45,115.72s7.27-15,10-50.15C210,31.19,239.93,49.65,241,88.77c.88,31.77-29.24,41.44-29.24,41.44Z"/><path class="cls-2" d="M203.42,125.68a2.24,2.24,0,0,1-.42-4.45c1-.18,24-4.8,26.58-25.23,2-16.06-3-29.07-7.45-32.28-1.19-.86-1.76-.58-1.95-.49-1.52.72-3.47,4.7-4,13.55-1.47,25.47-10.52,39.88-10.9,40.48a2.25,2.25,0,0,1-3.79-2.41h0c.09-.14,8.81-14.12,10.2-38.33.56-9.72,2.76-15.56,6.53-17.35a6.23,6.23,0,0,1,6.51.91C231,64.62,236.2,79.5,234,96.56c-3,23.71-29.94,29-30.21,29.09Z"/><path class="cls-2" d="M224.51,279.13c-.92.51-1.84,1.06-2.79,1.55a149.7,149.7,0,0,1-142.52.54c-.92-.47-1.8-1-2.7-1.49-7.75-44.94-12.74-95.39-4.19-125.93.18-.65.36-1.3.56-1.93a85.78,85.78,0,0,1,8.29-19.2c.31-.59.67-1.15,1-1.71a2.38,2.38,0,0,1,.18-.3,2.74,2.74,0,0,1,.23-.36c.33-.56.69-1.08,1.06-1.62.78-1.17,1.57-2.32,2.4-3.42l.39-.47a.94.94,0,0,1,.2-.27,2,2,0,0,1,.27-.34c.63-.83,1.28-1.64,2-2.45a69.27,69.27,0,0,1,4.93-5.34c.47-.47,1-.94,1.46-1.39a3.08,3.08,0,0,1,.27-.25,1.86,1.86,0,0,1,.29-.27c.48-.45,1-.88,1.47-1.31s1.06-.92,1.6-1.35,1.14-.94,1.73-1.39c.07-.07.16-.11.22-.18a16.27,16.27,0,0,1-.38-1.71,14.64,14.64,0,0,1-.29-2.66c0-.22,0-.45,0-.67a18.21,18.21,0,0,1,.74-5.23,19.1,19.1,0,0,1,29.84-9.7c3.36-6.59,10.92-11.18,19.7-11.18s16.32,4.59,19.67,11.18a19.05,19.05,0,0,1,30.59,14.93,9,9,0,0,1,0,1v.07a17.54,17.54,0,0,1-.66,3.94c.45.34.9.7,1.33,1.08a1.76,1.76,0,0,1,.34.25c.11.09.22.18.31.27a19.19,19.19,0,0,1,1.69,1.44c.47.38.95.81,1.4,1.23s1,.88,1.44,1.35a3.84,3.84,0,0,1,.29.27l.27.28c.5.47,1,.94,1.42,1.44,1.44,1.46,2.81,3,4.14,4.63.65.79,1.28,1.58,1.91,2.41.09.11.16.23.25.34l0,0,.21.27.36.52c.85,1.15,1.64,2.32,2.4,3.51a15.61,15.61,0,0,1,1.06,1.67,1.17,1.17,0,0,1,.2.33,1,1,0,0,1,.18.3c.36.56.7,1.12,1,1.71a87.94,87.94,0,0,1,7.74,18.3c.21.63.39,1.28.57,1.93C237.09,184.21,232.16,234.34,224.51,279.13Z"/><path class="cls-3" d="M200.82,209.49c-16.38,20.41-40.54,21.42-51.69,21.42s-35.3-1-51.68-21.42c-13.65-17-7.15-54.19,4.07-72.54a18.79,18.79,0,0,0,16.36,9.92,18.17,18.17,0,0,0,11.57-4.17,22.13,22.13,0,0,0,39.36,0,18.19,18.19,0,0,0,11.57,4.17A18.81,18.81,0,0,0,196.75,137C208,155.3,214.46,192.5,200.82,209.49Z"/><path class="cls-1" d="M156.74,179.07a2.41,2.41,0,0,1,1.35,3.59c-1.8,2.72-5.13,6.82-9,6.82s-7.16-4.1-8.95-6.82a2.4,2.4,0,0,1,1.34-3.59,20.56,20.56,0,0,1,15.22,0Z"/><path class="cls-1" d="M149.13,197.31a2.3,2.3,0,0,1-2.09-2.47v-9.37a2.12,2.12,0,1,1,4.19,0v9.37A2.3,2.3,0,0,1,149.13,197.31Z"/><ellipse class="cls-1" cx="118.58" cy="175.88" rx="10.41" ry="9.42" transform="translate(-92.88 192.67) rotate(-60.55)"/><ellipse class="cls-2" cx="115.73" cy="173.38" rx="3.57" ry="2.54" transform="translate(-84.16 232.51) rotate(-72.76)"/><ellipse class="cls-2" cx="122.53" cy="179.24" rx="1.78" ry="1.28" transform="matrix(0.2, -0.98, 0.98, 0.2, -77.91, 262.69)"/><ellipse class="cls-1" cx="182.8" cy="173.25" rx="11.49" ry="13.01" transform="translate(-51.09 79.83) rotate(-21.69)"/><ellipse class="cls-2" cx="186.25" cy="170.1" rx="3.09" ry="4.48" transform="translate(-38.66 55.91) rotate(-15.49)"/><ellipse class="cls-2" cx="178.02" cy="177.48" rx="1.55" ry="2.23" transform="translate(-29.35 35.39) rotate(-10.49)"/><rect class="cls-1" x="131.11" y="195.95" width="36.05" height="2.72" rx="0.6"/><path class="cls-1" d="M188.94,155.82a19.54,19.54,0,0,0-5.22-1.94,12.29,12.29,0,0,0-2.9-.15,12.56,12.56,0,0,0-3.35.71,14.43,14.43,0,0,0-3,1.54,11.91,11.91,0,0,0-2.19,1.91,9.89,9.89,0,0,0-1.42,2.11c-.42.77-.81,1.59-1.5,2.64h0a.74.74,0,0,1-.57.27.33.33,0,0,1-.15,0,2.49,2.49,0,0,1-1.78-2.21,5.21,5.21,0,0,1,1.31-3.2,13.72,13.72,0,0,1,3.66-3.08,25.5,25.5,0,0,1,4.88-2.25,27.6,27.6,0,0,1,5.2-1.22,13.28,13.28,0,0,1,4.79.12,4.65,4.65,0,0,1,2.9,1.74,2.77,2.77,0,0,1,.1,2.78.65.65,0,0,1-.51.28.56.56,0,0,1-.2,0Z"/><path class="cls-1" d="M125.9,163.17a16.38,16.38,0,0,0-3.42-3.19,9.84,9.84,0,0,0-2.14-1,9.15,9.15,0,0,0-2.71-.38A10,10,0,0,0,115,159a8.86,8.86,0,0,0-2.15,1,8.33,8.33,0,0,0-1.63,1.38c-.51.53-1,1.11-1.81,1.8h0a.54.54,0,0,1-.5,0,.33.33,0,0,1-.1-.06,2.42,2.42,0,0,1-.76-2.41,4.6,4.6,0,0,1,1.82-2.33,10.15,10.15,0,0,1,3.56-1.53,17.78,17.78,0,0,1,4.26-.47,19.12,19.12,0,0,1,4.23.5,10.1,10.1,0,0,1,3.57,1.51,4.07,4.07,0,0,1,1.72,2.34,2.7,2.7,0,0,1-.64,2.39.48.48,0,0,1-.46.09.27.27,0,0,1-.15-.09Z"/><path class="cls-1" d="M126.36,159.24s2.72,3.67,4.75,4c0,0-2.88,2.27-5.21-.11"/></svg>