<svg id="Calque_1" data-name="Calque 1" xmlns="http://www.w3.org/2000/svg" viewBox="0 0 300 300"><defs><style>.cls-1{fill:#183a66;}.cls-2{fill:#9a5536;}.cls-3{fill:#fff;}.cls-4{fill:#f4f4f4;}</style></defs><path class="cls-1" d="M297.69,148.64a147.88,147.88,0,0,1-28.59,87.65A149.67,149.67,0,0,1,225.81,276c-.87.53-1.77,1.07-2.66,1.59s-1.84,1.05-2.78,1.54a145.69,145.69,0,0,1-23.15,10.22,148.43,148.43,0,0,1-48.17,8,150.66,150.66,0,0,1-18.63-1.16,147.46,147.46,0,0,1-51.71-16.51c-.91-.47-1.79-1-2.68-1.48s-1.79-1-2.66-1.54a148.65,148.65,0,1,1,224.32-128Z"/><path class="cls-2" d="M142.83,197.21s-42.09-58-32.36-69,15.69-5.49,33.95,8.82c0,0-15.51-37.64.46-34.62s43.32,46.14,43.32,46.14-18.74-2.14-31.87,11.32S142.83,197.21,142.83,197.21Z"/><path class="cls-3" d="M269.1,236.29A149.67,149.67,0,0,1,225.81,276c-.87.53-1.77,1.07-2.66,1.59s-1.84,1.05-2.78,1.54a145.69,145.69,0,0,1-23.15,10.22L132.52,189s-8.7-14.72,8.81-13.62c0,0-4.9-9,2-14.1,6.51-4.74,8.46-3.22,8.66-3-.07-.31-1.86-7.16,4.65-13.15,4-3.72,12.31-.38,12.31-.38a12.37,12.37,0,0,1,5.14-11.12c9.89-7.09,14.14,3.47,14.14,3.47Z"/><path class="cls-4" d="M149,50s64,30.74,82.28,77.67C231.31,127.69,229.29,69.44,149,50Z"/><path class="cls-4" d="M148.93,78.87s38.51,18.5,49.52,46.73C198.45,125.6,197.23,90.55,148.93,78.87Z"/><path class="cls-4" d="M109.58,233.7S53,190.77,44.51,141.13C44.51,141.13,34.83,198.61,109.58,233.7Z"/><path class="cls-4" d="M115.45,205.46s-34-25.84-39.15-55.7C76.3,149.76,70.47,184.34,115.45,205.46Z"/></svg>